<svg width="100" height="100" viewBox="0 0 100 100" fill="none" xmlns="http://www.w3.org/2000/svg">
<path fill-rule="evenodd" clip-rule="evenodd" d="M0 0H100V100H0V0Z" fill="white"/>
<path fill-rule="evenodd" clip-rule="evenodd" d="M3.2207 43.1301C3.26376 43.2339 3.28658 43.3465 3.28658 43.459V69.1527C3.28637 69.3808 3.19569 69.5994 3.03445 69.7607C2.83109 69.9662 2.55872 70.031 2.30451 70.0129C2.02333 70.0129 1.72866 70.1519 1.58132 70.4165C1.43346 70.6821 1.43346 71.065 1.58132 71.3301C1.72866 71.5957 2.02333 71.7337 2.30451 71.7337H5.25124C5.53243 71.7337 5.82658 71.5952 5.97444 71.3301C6.12177 71.065 6.12177 70.6821 5.97444 70.4165C5.80531 70.1099 5.44475 69.9848 5.12881 70.0129C4.90106 70.0126 4.68274 69.9219 4.52182 69.7607C4.36087 69.5992 4.27025 69.3807 4.26969 69.1527V48.3767L7.58528 71.6118H10.4091L13.97 48.3767V69.7675C13.9698 69.9955 13.8791 70.2142 13.7179 70.3755C13.5145 70.5809 13.2422 70.6458 12.988 70.6276C12.7389 70.6276 12.4381 70.5861 12.2777 70.7947C12.1169 71.0032 12.1143 71.3674 12.2902 71.576C12.4666 71.7845 12.8012 71.7342 13.0777 71.7342H18.9141C19.1901 71.7342 19.5258 71.785 19.7016 71.576C19.8775 71.3679 19.8749 71.0032 19.7141 70.7947C19.5252 70.5534 19.1564 70.6432 18.8814 70.6276C18.6536 70.6271 18.4352 70.5362 18.2742 70.375C18.1132 70.2138 18.0226 69.9953 18.0223 69.7675V43.4596C18.0224 43.2316 18.1129 43.0129 18.2739 42.8515C18.4773 42.6461 18.7497 42.5807 19.0044 42.5989C19.2539 42.5989 19.5538 42.6404 19.7146 42.4318C19.8754 42.2233 19.878 41.8591 19.7022 41.6505C19.5263 41.442 19.1906 41.4933 18.9146 41.4923L15.8455 41.4825C15.1757 41.4804 14.5065 41.4451 14.1444 41.7491C13.7828 42.0531 13.7677 42.6845 13.6748 43.3065L10.5938 63.958L7.48568 43.3065C7.39074 42.6757 7.31759 42.0417 6.93368 41.7382C6.54978 41.4342 5.86601 41.4799 5.18173 41.4825L2.49543 41.4923C2.1883 41.4933 1.81478 41.4332 1.61971 41.6433C1.42516 41.8529 1.43087 42.2202 1.59273 42.4308C1.78313 42.6736 2.15199 42.5838 2.42695 42.5994C2.6547 42.5997 2.87302 42.6904 3.03393 42.8515C3.11383 42.9309 3.17764 43.0264 3.2207 43.1301V43.1301ZM25.2485 57.6039V54.556C25.2485 53.9952 25.3253 53.4266 25.5375 52.9296C25.7487 52.4331 26.0698 52.0087 26.3997 51.8292C26.7292 51.6497 27.0669 51.7156 27.2672 52.0113C27.4674 52.307 27.4186 52.817 27.4186 53.2585V59.7232C27.0617 59.5094 26.7053 59.2952 26.339 59.1924C25.9728 59.0897 25.5972 59.1068 25.2216 59.1068H24.2571C23.8162 59.1068 23.3742 59.1961 22.9508 59.3787C22.5275 59.5618 22.1223 59.8357 21.8479 60.2326C21.5729 60.629 21.4282 61.1472 21.3358 61.7003C21.243 62.2533 21.2295 62.8406 21.2295 63.4252V67.3416C21.2295 67.9252 21.2347 68.511 21.3057 69.0635C21.3773 69.616 21.4889 70.1348 21.7602 70.5617C22.0315 70.9887 22.4626 71.3238 22.9249 71.55C23.3871 71.7773 23.88 71.9018 24.3739 71.9018H25.6133C26.0262 71.9018 26.4163 71.7083 26.7214 71.5205C27.0264 71.3332 27.2355 71.0546 27.4446 70.7755C27.6402 71.1257 27.8363 71.4769 28.0998 71.6372C28.3634 71.7985 28.6938 71.7415 29.0264 71.741L31.874 71.7342C32.1505 71.7337 32.4857 71.785 32.6621 71.576C32.8379 71.3679 32.8353 71.0032 32.688 70.8243C32.5407 70.6442 32.2481 70.6499 32.0048 70.611C31.7604 70.5726 31.5643 70.4896 31.4367 70.3978C31.1851 70.2084 31.1555 69.9854 31.143 69.7675L31.155 54.1166C31.156 52.7672 30.9397 51.2067 30.1127 50.4389C29.2858 49.6711 28.0651 49.7136 27.1463 49.9797C26.2275 50.2459 25.6107 50.7367 25.2485 51.3805V50.8165C25.2485 50.6682 25.1811 50.5265 25.0919 50.4378C24.9905 50.3384 24.8546 50.2821 24.7126 50.2806H22.4621C22.3132 50.2806 22.1721 50.3481 22.0829 50.4378C21.984 50.5393 21.9279 50.6749 21.9262 50.8165V57.6034C21.9262 57.7523 21.9937 57.8939 22.0829 57.9831C22.1721 58.0724 22.3132 58.1398 22.4621 58.1398H24.7126C24.8615 58.1398 25.0026 58.0724 25.0919 57.9831C25.1816 57.8944 25.2485 57.7528 25.2485 57.6039V57.6039ZM25.0846 61.3568C25.0846 61.113 25.1484 60.8583 25.3082 60.6824C25.468 60.5065 25.7061 60.4111 25.9401 60.4043C26.1741 60.3981 26.4034 60.4816 26.6254 60.753C26.8475 61.0243 27.0628 61.4834 27.1987 61.9835C27.3356 62.4842 27.3637 63.0237 27.3637 63.5596V66.5702C27.3637 67.1061 27.3356 67.6456 27.1987 68.1457C27.0622 68.6458 26.8475 69.1055 26.6254 69.3768C26.4034 69.6476 26.1736 69.7317 25.9313 69.7301C25.689 69.7291 25.4327 69.6435 25.2641 69.313C25.0965 68.9825 25.0846 68.4124 25.0846 67.892V61.3568V61.3568ZM38.4647 69.7675V54.0823C38.4647 53.672 38.5296 53.2564 38.6987 52.8948C38.8673 52.5327 39.1231 52.2251 39.3695 52.0798C39.6159 51.9351 39.8525 51.9527 39.9978 52.1576C40.1425 52.3625 40.1197 52.7459 40.1197 53.0707V57.6039C40.1197 57.7528 40.1866 57.8944 40.2764 57.9836C40.3656 58.0729 40.5067 58.1403 40.6556 58.1403H42.9331C43.0815 58.1403 43.2226 58.0729 43.3118 57.9836C43.401 57.8939 43.4685 57.7528 43.4685 57.6039V53.1781C43.4685 52.2852 43.4073 51.2871 42.9393 50.7247C42.4714 50.1624 41.7518 50.0487 41.1453 50.055C40.5389 50.0612 40.0455 50.1862 39.5941 50.3782C39.1498 50.5647 38.7399 50.8246 38.3817 51.147C38.3605 50.926 38.3392 50.7055 38.1939 50.5328C38.0481 50.3605 37.8054 50.111 37.5086 50.111H34.3243C34.0483 50.111 33.7126 50.0601 33.5383 50.2635C33.364 50.4664 33.3707 50.8191 33.5113 51.0251C33.6519 51.2305 33.9258 51.2892 34.0903 51.3841C34.2548 51.479 34.3092 51.6113 34.3476 51.7327C34.386 51.8541 34.413 51.9657 34.413 52.0777V69.7675C34.413 69.8801 34.3902 69.9921 34.3429 70.1249C34.2957 70.2577 34.2247 70.4123 34.0306 70.5036C33.8366 70.5949 33.5207 70.624 33.3614 70.818C33.2021 71.012 33.1995 71.3716 33.3759 71.578C33.5523 71.784 33.8869 71.7337 34.164 71.7337H38.7947C39.0712 71.7337 39.4063 71.7845 39.5843 71.576C39.7622 71.3685 39.7638 71.0048 39.5822 70.8087C39.4006 70.6131 39.0364 70.5841 38.8279 70.4943C38.6199 70.404 38.5675 70.2525 38.5301 70.1213C38.4928 69.99 38.4647 69.8801 38.4647 69.7675V69.7675ZM48.7373 70.099C48.6955 69.9934 48.6737 69.881 48.673 69.7675V30.0696C48.673 29.5139 48.73 28.9594 48.5708 28.6315C48.4923 28.4721 48.3706 28.3379 48.2195 28.2445C48.0684 28.151 47.894 28.1019 47.7163 28.1028H43.7289C43.4524 28.1028 43.1173 28.0525 42.9414 28.2611C42.765 28.4691 42.7681 28.8338 42.9289 29.0424C43.1178 29.2836 43.4866 29.1944 43.7621 29.2094C43.99 29.21 44.2083 29.3008 44.3694 29.462C44.5304 29.6232 44.621 29.8417 44.6212 30.0696V69.7675C44.6077 69.9729 44.5932 70.1929 44.3281 70.3978C44.2 70.4896 44.0039 70.5726 43.76 70.611C43.5157 70.6499 43.2236 70.6442 43.0763 70.8243C42.9289 71.0038 42.9258 71.3679 43.1022 71.576C43.2786 71.7845 43.6137 71.7342 43.8902 71.7342H49.405C49.6815 71.7342 50.0166 71.7851 50.193 71.5755C50.3699 71.3669 50.3679 71.0022 50.2159 70.8227C50.0639 70.6432 49.7619 70.6505 49.5171 70.6121C49.2727 70.5737 49.0865 70.4896 48.963 70.3973C48.8395 70.3049 48.7783 70.2053 48.7373 70.099V70.099ZM58.6882 52.0653C58.8625 52.2577 58.9326 52.5374 58.9326 52.8046V68.1177C58.9326 68.6879 58.9196 69.313 58.736 69.6751C58.5518 70.0367 58.2716 70.1311 58.0065 70.1327C57.7414 70.1343 57.4898 70.0424 57.2465 69.7452C57.0032 69.4479 56.7682 68.9441 56.6183 68.3963C56.4694 67.8479 56.4388 67.2565 56.4388 66.6693V55.219C56.4388 54.6317 56.4694 54.0403 56.6183 53.492C56.7682 52.9436 57.0032 52.4409 57.2465 52.1426C57.4898 51.8458 57.7409 51.754 57.9962 51.7613C58.2524 51.7675 58.5129 51.8728 58.6882 52.0653V52.0653ZM55.5905 71.6554C55.8541 71.548 56.0647 71.3223 56.2764 71.0971C56.4963 71.2792 56.7163 71.4603 57.0696 71.5947C57.4245 71.729 57.9054 71.9018 58.4019 71.9018H59.3461C59.8405 71.9018 60.3328 71.7773 60.7867 71.5469C61.2396 71.3171 61.6542 70.9752 61.9976 70.5524C62.3516 70.1118 62.6237 69.6114 62.8012 69.0749C62.9864 68.526 63.0808 67.933 63.0808 67.3411V54.8413C63.0819 54.2519 62.9875 53.6662 62.8012 53.107C62.6237 52.5706 62.3515 52.0704 61.9976 51.63C61.6542 51.2072 61.2396 50.8653 60.7867 50.6355C60.3409 50.406 59.8474 50.2845 59.3461 50.2806H58.4019C57.9085 50.2806 57.4322 50.47 57.0997 50.5815C56.7682 50.6931 56.5882 50.8223 56.4087 50.9514L56.4419 30.0696C56.4429 29.5139 56.4995 28.9594 56.3397 28.6315C56.2613 28.4721 56.1397 28.3379 55.9887 28.2444C55.8377 28.1509 55.6634 28.1019 55.4857 28.1028H51.4983C51.2218 28.1028 50.8861 28.0525 50.7098 28.2611C50.5334 28.4691 50.5365 28.8338 50.6978 29.0424C50.8861 29.2836 51.255 29.1944 51.5305 29.2094C51.6433 29.2094 51.7549 29.2317 51.8591 29.275C51.9633 29.3182 52.0579 29.3816 52.1375 29.4615C52.3066 29.6301 52.3896 29.8558 52.3896 30.0696V69.7675C52.3766 69.9729 52.3611 70.1929 52.096 70.3978C51.9683 70.4896 51.7728 70.5726 51.5284 70.611C51.2841 70.6499 50.9925 70.6442 50.8446 70.8243C50.6978 71.0038 50.6947 71.3679 50.8711 71.576C51.0475 71.7845 51.3826 71.7337 51.6586 71.7342L54.6946 71.741C55.011 71.7415 55.327 71.7627 55.5905 71.6554V71.6554ZM68.4114 71.5547C68.964 71.7831 69.5561 71.901 70.154 71.9018H71.3073C71.9029 71.9018 72.499 71.783 73.0499 71.5547C73.6009 71.3264 74.1057 70.9882 74.5274 70.5664C75.3819 69.7107 75.8618 68.5509 75.8618 67.3416V54.8413C75.8618 54.2447 75.743 53.6476 75.5152 53.0961C75.1714 52.263 74.5879 51.5507 73.8388 51.0496C73.0896 50.5484 72.2086 50.281 71.3073 50.2812H70.154C69.556 50.2817 68.964 50.3996 68.4114 50.6282C67.8589 50.8577 67.3569 51.1935 66.9339 51.6165C66.511 52.0404 66.1754 52.5431 65.9461 53.0961C65.7181 53.6497 65.6004 54.2426 65.5996 54.8413V67.3416C65.5996 67.9382 65.7189 68.5353 65.9461 69.0868C66.1739 69.6378 66.5126 70.1441 66.9339 70.5664C67.3551 70.9887 67.8615 71.3264 68.4114 71.5547V71.5547ZM71.8204 52.0788C72.0585 52.4025 71.9776 52.8518 71.9776 53.2632V68.8928C71.9776 69.3063 72.0092 69.754 71.7778 70.0741C71.5465 70.3942 71.1558 70.5732 70.7486 70.5695C70.3413 70.5659 69.9175 70.3796 69.6695 70.0596C69.422 69.7389 69.4588 69.299 69.4588 68.8928V53.2632C69.4588 52.8585 69.4013 52.4191 69.6441 52.0974C69.8868 51.7758 70.3117 51.5895 70.7356 51.5844C71.1594 51.5792 71.5823 51.7556 71.8204 52.0788ZM82.7544 69.7675V54.0823C82.7544 53.672 82.8193 53.2564 82.9884 52.8948C83.1565 52.5327 83.4128 52.2251 83.6592 52.0798C83.9056 51.9351 84.1427 51.9527 84.2874 52.1576C84.4322 52.3625 84.4088 52.7459 84.4088 53.0707V57.6039C84.4088 57.7528 84.4768 57.8944 84.566 57.9836C84.6553 58.0729 84.7959 58.1403 84.9447 58.1403H87.2228C87.3716 58.1403 87.5128 58.0729 87.6015 57.9836C87.6907 57.8939 87.7576 57.7528 87.7576 57.6039V53.1781C87.7576 52.2852 87.6969 51.2871 87.2285 50.7247C86.76 50.1624 86.041 50.0487 85.435 50.055C84.9014 50.0567 84.3737 50.1666 83.8838 50.3782C83.4395 50.565 83.0295 50.8249 82.6709 51.147C82.6496 50.926 82.6294 50.7055 82.4836 50.5328C82.3378 50.3605 82.0955 50.111 81.7978 50.111H78.6139C78.3374 50.111 78.0018 50.0601 77.8275 50.2635C77.6542 50.4664 77.6604 50.8191 77.801 51.0251C77.9411 51.2305 78.2155 51.2892 78.3794 51.3841C78.5434 51.479 78.5984 51.6113 78.6368 51.7327C78.6752 51.8541 78.7016 51.9657 78.7016 52.0777V69.7675C78.7016 69.8801 78.6793 69.9921 78.6316 70.1249C78.5849 70.2582 78.5128 70.4123 78.3193 70.5036C78.1247 70.5955 77.8098 70.624 77.6495 70.818C77.4902 71.012 77.4882 71.3716 77.6646 71.578C77.8409 71.7845 78.1761 71.7337 78.4521 71.7337H83.0838C83.3593 71.7337 83.695 71.7845 83.8729 71.576C84.0514 71.3685 84.0524 71.0048 83.8709 70.8087C83.6882 70.6131 83.3246 70.5841 83.116 70.4943C82.9075 70.4045 82.8556 70.2525 82.8182 70.1213C82.7824 69.9911 82.7544 69.8801 82.7544 69.7675ZM91.0794 71.5547C91.6321 71.7831 92.2241 71.901 92.8221 71.9018H93.9743C94.5709 71.9018 95.167 71.783 95.718 71.5547C96.5503 71.2087 97.2616 70.6239 97.762 69.8741C98.2624 69.1243 98.5296 68.2431 98.5298 67.3416V54.8413C98.5298 54.2447 98.4105 53.6476 98.1832 53.0961C97.7208 51.9794 96.8342 51.0918 95.718 50.6282C95.165 50.3997 94.5726 50.2818 93.9743 50.2812H92.8221C92.2265 50.2812 91.6304 50.4 91.0794 50.6282C90.5285 50.8565 90.0237 51.1947 89.6019 51.6165C88.7472 52.4721 88.2673 53.632 88.2676 54.8413V67.3416C88.2682 68.243 88.5355 69.124 89.0359 69.8737C89.5363 70.6234 90.2473 71.2083 91.0794 71.5547V71.5547ZM94.4879 52.0788C94.726 52.4025 94.6441 52.8518 94.6441 53.2632V68.8928C94.6441 69.3063 94.6757 69.754 94.4443 70.0741C94.2129 70.3942 93.8233 70.5732 93.4161 70.5695C93.0088 70.5659 92.585 70.3796 92.337 70.0596C92.0885 69.7389 92.1264 69.299 92.1264 68.8928V53.2632C92.1264 52.8585 92.0688 52.4191 92.3116 52.0974C92.5544 51.7758 92.9793 51.5895 93.4031 51.5844C93.827 51.5792 94.2498 51.7556 94.4879 52.0788Z" fill="#CA3432"/>
</svg>
