<svg width="100" height="100" viewBox="0 0 100 100" fill="none" xmlns="http://www.w3.org/2000/svg">
<rect width="100" height="100" fill="white"/>
<path d="M85.7419 25.5554C84.8456 26.2005 84.7449 26.4189 85.3592 26.3196C85.8426 26.2402 85.9937 26.3296 86.2757 26.8755C86.4569 27.2328 86.467 27.5008 86.467 30.9153C86.467 32.9302 86.4368 34.5977 86.4066 34.6374C86.3663 34.6672 86.0743 34.5679 85.752 34.4091C85.4297 34.2404 85.0873 34.1114 84.9866 34.1114C84.6744 34.1213 82.8919 35.8881 82.5898 36.4737C82.1769 37.2975 82.1165 38.0817 82.1568 42.1016C82.2071 46.0917 82.197 46.0818 82.7912 46.6575C83.194 47.0545 84.4126 47.7295 84.6744 47.6898C84.8356 47.6699 85.047 47.4317 85.4096 46.8461C85.6815 46.3994 86.0541 45.8734 86.2253 45.6649L86.5375 45.2778L87.0813 45.7642C87.605 46.2307 87.9373 46.4193 88.2294 46.4193C88.4207 46.4193 89.6896 44.8411 89.6896 44.6029C89.6896 44.3845 89.6292 44.3845 89.2767 44.6426C88.9847 44.8411 88.9645 44.8411 88.7732 44.6724C88.2898 44.2356 88.2797 44.1066 88.2797 34.9848C88.2797 25.3668 88.3402 26.1112 87.4841 25.3469C86.9101 24.8407 86.6785 24.8705 85.7419 25.5554V25.5554ZM85.1175 35.4017C85.3995 35.5605 85.8225 35.898 86.0541 36.1561L86.467 36.6226V44.7021L85.9937 45.3572C85.4499 46.1116 85.188 46.191 84.6442 45.794C84.04 45.3572 84.05 45.4664 84.05 40.3646C84.05 36.1164 84.0702 35.6499 84.2212 35.3918C84.322 35.233 84.4428 35.1039 84.5032 35.1039C84.5536 35.1039 84.8356 35.233 85.1175 35.4017ZM77.4135 28.2055C76.9603 28.5629 76.5977 28.9103 76.5977 28.9698C76.5977 29.0294 76.7287 29.0492 76.9603 28.9996C77.343 28.9301 77.5947 29.0691 77.8364 29.4959C77.9271 29.6448 77.9673 32.1461 78.0076 38.7268C78.0479 46.2009 78.0781 47.8089 78.199 48.0273C78.3299 48.2853 79.5484 49.1886 79.9613 49.3375C80.2534 49.4367 80.5555 49.1886 81.2806 48.2456C81.9251 47.392 82.056 47.0347 81.5626 47.4119C81.2504 47.6501 80.7569 47.6699 80.4347 47.4516C79.911 47.0843 79.9211 47.2828 79.9211 37.9328C79.9211 28.4735 79.9513 28.9202 79.3571 28.2254C79.0348 27.8482 78.6219 27.5604 78.3903 27.5604C78.2997 27.5604 77.8666 27.8482 77.4135 28.2055V28.2055ZM65.5401 32.4438C65.4193 32.5629 63.7677 33.7243 62.68 34.4588C61.955 34.9451 61.8744 35.1238 62.1463 35.5407C62.2772 35.7293 62.2974 36.2553 62.2772 39.0842L62.247 42.3994L61.7435 42.6574C61.1694 42.9453 60.968 43.3225 61.4615 43.2034C61.6126 43.1637 61.8542 43.1239 61.9952 43.114L62.247 43.0942L62.2772 50.4194C62.2974 56.5634 62.2772 57.8538 62.1463 58.4394C62.0657 58.8265 61.9449 59.2037 61.8845 59.2831C61.7938 59.3923 61.3205 59.422 59.5783 59.422C57.7756 59.422 57.2117 59.4617 56.4463 59.6206C54.7645 59.968 54.3516 60.1168 52.8813 60.8811C52.2871 61.1988 51.4714 62.1318 51.2901 62.7075C51.0585 63.432 51.1491 63.8192 51.6627 64.3254C52.2367 64.8812 53.0525 65.1294 53.9488 65.0202L54.5933 64.9408L53.7876 64.8614C53.3445 64.8117 52.8813 64.7125 52.7604 64.6331C52.6396 64.5537 52.4684 64.4842 52.3979 64.4842C52.3173 64.4842 52.0655 64.2956 51.8339 64.0772C51.5117 63.7596 51.421 63.5909 51.421 63.3328C51.421 62.509 52.5389 61.2385 53.6366 60.8315C54.3415 60.5635 55.1371 60.4742 55.7816 60.5933C56.4866 60.7223 56.6477 60.6528 56.6376 60.226C56.6276 60.0672 56.6578 59.8985 56.688 59.8488C56.7786 59.7 59.1049 59.5908 60.394 59.6801C61.7737 59.7595 61.8542 59.8389 61.3809 60.6826C60.7868 61.7546 60.3839 62.2509 59.4977 63.0152C58.9438 63.4916 57.0707 64.4842 56.7182 64.4842C56.6175 64.4842 56.4161 64.5537 56.2549 64.6331C56.0938 64.7125 55.6507 64.8217 55.2781 64.8713L54.5933 64.9507L55.2479 64.9705C55.8924 64.9805 56.8793 64.8117 57.5641 64.5735C58.7726 64.1566 60.394 63.1839 61.1594 62.4295C61.4111 62.1814 62.5894 60.8216 62.9117 60.4047L63.1735 60.0771L63.6166 60.2161C64.0799 60.3551 65.2581 60.8514 65.52 61.0201C65.6005 61.0697 65.7717 61.1491 65.8926 61.2087C66.9601 61.6553 68.662 63.2137 69.1958 64.2162C69.508 64.7919 69.8504 66.0326 69.8504 66.5785C69.8504 67.4718 69.2159 69.0997 68.6016 69.7548C67.8765 70.519 66.4566 71.4124 65.671 71.5811C65.4998 71.6208 65.1977 71.7101 64.9862 71.7895C64.5129 71.9682 62.8915 71.9781 62.7203 71.8094C62.6498 71.7399 62.5995 71.5414 62.5995 71.3627C62.5995 71.1245 62.529 70.9955 62.3477 70.8764C62.1161 70.7275 62.0758 70.7275 61.8341 70.8764C61.6931 70.9756 61.5521 71.1146 61.5219 71.194C61.4313 71.4322 61.683 71.8789 62.0254 72.0873C62.4988 72.3652 64.4726 72.3454 65.4596 72.0377C68.3398 71.1543 70.1525 69.06 70.1525 66.6281C70.1525 64.2063 68.5613 62.1516 65.53 60.6429C64.9459 60.3451 64.3014 60.0871 64.0899 60.0573C63.8885 60.0176 63.6368 59.9084 63.5461 59.8091C63.385 59.6305 63.3951 59.5511 63.7677 58.4096L64.1604 57.1887L64.1906 49.7941C64.2209 41.4961 64.1504 42.181 65.0164 41.9031C65.5502 41.7244 65.9127 41.4266 65.7214 41.3075C65.6509 41.2678 65.3588 41.3175 65.0668 41.4167C64.1705 41.7145 64.2108 41.9031 64.2108 37.6747C64.2108 35.5407 64.2511 33.9228 64.3115 33.7739C64.4424 33.4066 64.6539 33.4563 65.1977 33.9426C65.9027 34.5878 66.1242 34.7069 66.6076 34.7069C67.1111 34.7069 67.5543 34.5084 68.0175 34.0816C68.4606 33.6548 68.4405 33.5158 67.9067 33.5158C67.514 33.5158 67.3831 33.4463 66.7486 32.9203C66.0235 32.3247 65.7617 32.2255 65.5401 32.4438V32.4438Z" fill="black"/>
<path d="M67.1213 36.5631C66.789 36.8708 66.5372 37.1586 66.5473 37.1983C66.6077 37.3571 67.6752 38.0817 67.8464 38.0817C68.0579 38.0817 68.652 37.5954 68.9542 37.1686C69.1254 36.9403 69.1354 36.8509 69.0448 36.7417C68.8635 36.5234 68.0277 35.9973 67.8665 35.9973C67.786 35.9973 67.4536 36.2554 67.1213 36.5631V36.5631ZM74.3823 38.3001C74.1909 38.4688 73.6672 38.9254 73.2241 39.3125C72.0962 40.2952 71.7941 40.6227 71.5323 41.0992C71.3107 41.4962 71.3107 41.5855 71.2805 45.7146L71.2503 49.9231L71.4718 50.1514C71.8344 50.5385 73.8687 51.6999 74.1104 51.6602C74.3923 51.6205 76.2856 49.1787 76.0943 49.1192C76.0238 49.0894 75.7821 49.2681 75.5605 49.5063C75.2282 49.8636 75.0872 49.943 74.7952 49.9331C74.3218 49.9331 73.3148 49.3078 73.1637 48.9206C73.1033 48.7618 73.0731 48.0571 73.0932 47.2333L73.1234 45.8139L73.5263 45.4466C73.7478 45.2481 74.1607 44.9007 74.4226 44.6824C74.6945 44.464 75.2383 44.0173 75.631 43.6798C76.0238 43.3523 76.4468 42.995 76.5777 42.8957C76.6985 42.7865 76.7992 42.6376 76.7992 42.5483C76.7992 42.4193 76.5374 41.6947 75.8727 40.0172C75.7619 39.7393 75.631 39.382 75.5807 39.2232C75.3994 38.6673 75.0369 38.0321 74.8858 38.0122C74.8052 37.9924 74.5736 38.1214 74.3823 38.3001V38.3001ZM74.0197 40.5632C74.5635 41.9031 75.0872 43.3622 75.0872 43.5012C75.0872 43.66 73.4961 45.0298 73.3148 45.0298C73.0832 45.0298 73.0529 44.6426 73.0932 42.2803C73.1134 40.5036 73.1536 39.9577 73.2644 39.8287C73.5162 39.5408 73.6773 39.6996 74.0197 40.5632V40.5632ZM67.1717 40.7815C66.8293 41.1488 66.3459 41.784 66.1445 42.1215C66.0236 42.3399 66.0337 42.3498 66.3761 42.3498C66.7084 42.3498 66.7588 42.3895 66.93 42.7667C67.1112 43.1637 67.1314 43.4615 67.1314 47.67C67.1314 52.7917 67.0407 52.3153 68.1082 53.0795C68.8837 53.6453 69.0448 53.6056 69.8203 52.623C70.3741 51.9182 70.5655 51.5808 70.4043 51.5808C70.3641 51.5808 70.213 51.6502 70.0418 51.7396C69.6793 51.9182 69.4174 51.8587 69.1455 51.5113C68.9542 51.2631 68.9441 51.1242 68.9441 46.4293C68.9441 42.3101 68.924 41.5657 68.793 41.387C68.6218 41.1488 67.7155 40.4639 67.5644 40.4639C67.5141 40.4639 67.3328 40.6128 67.1717 40.7815V40.7815ZM18.782 42.3399C14.4718 46.0025 12.0246 50.6378 11.1686 56.6925C10.9672 58.1913 10.937 61.8638 11.1283 63.5413C11.5815 67.5811 12.9612 70.668 15.3278 72.9211C15.8817 73.4472 16.5967 74.0427 16.929 74.2611C17.6743 74.7475 18.9835 75.4026 19.205 75.4026C19.5071 75.4026 20.1919 74.9758 21.763 73.8244C23.193 72.7722 25.2373 71.0055 25.2373 70.8169C25.2373 70.6481 25.0057 70.7573 24.1799 71.2834C22.7197 72.2362 21.4105 72.6928 20.8767 72.4546L20.625 72.3355L20.5545 70.0724C20.4437 66.8466 20.5746 45.5161 20.7055 45.3871C20.776 45.3176 21.0278 45.3573 21.4911 45.5062C22.3773 45.7841 22.8405 45.7841 23.4951 45.4863C23.8677 45.3077 24.1195 45.0893 24.4317 44.6824C25.0057 43.9181 24.9654 43.7791 24.0792 43.5012C23.0822 43.1836 22.0147 42.6079 20.8465 41.7344C20.5646 41.526 20.2423 41.3572 20.1315 41.3572C20.0207 41.3572 19.4165 41.794 18.782 42.3399V42.3399ZM19.1748 44.057C19.5474 44.3945 19.8797 44.7221 19.9301 44.7915C19.9704 44.861 19.9905 51.0249 19.9805 58.499L19.9502 72.0774L19.7388 72.1072C19.4971 72.137 18.7518 71.7598 18.1375 71.3032C17.3923 70.7375 16.4759 69.7449 16.4759 69.4967C16.4759 69.4273 16.788 69.0402 17.1607 68.6431C17.5433 68.2362 17.926 67.7994 18.0167 67.6605C18.1778 67.4322 18.1879 66.519 18.1879 55.4915C18.1879 48.9405 18.2181 43.5409 18.2584 43.5111C18.3893 43.3821 18.5001 43.4516 19.1748 44.057V44.057ZM16.355 57.5958C16.3651 63.7597 16.355 68.8615 16.3248 68.931C16.0932 69.5464 14.9048 67.194 14.1294 64.5835C13.5654 62.6579 13.3237 60.504 13.3338 57.4866C13.3338 54.8662 13.4647 53.5063 13.9078 51.5609C14.1495 50.479 14.8545 48.5236 15.3379 47.5608C15.8313 46.598 16.0428 46.2903 16.214 46.3499C16.2946 46.3797 16.3349 49.7246 16.355 57.5958V57.5958ZM46.2448 43.1538C45.1169 44.1861 45.137 44.1464 45.1169 46.3201C45.1068 47.3325 45.0967 48.206 45.0867 48.2655C45.0766 48.3251 44.8148 48.4938 44.4925 48.6229C43.8178 48.9206 43.5458 49.1589 43.8077 49.2581C43.8983 49.2879 44.1501 49.2482 44.3716 49.1589C45.137 48.8611 45.0766 48.4244 45.0766 54.1813C45.0766 60.2856 44.996 59.839 46.2448 60.6926C46.7987 61.0698 47.0807 61.2087 47.2317 61.169C47.4835 61.0996 49.0344 59.0648 48.9538 58.9159C48.9135 58.8663 48.7524 58.9556 48.5711 59.1243C48.1784 59.5015 47.836 59.5114 47.413 59.1343L47.0907 58.8365L47.0706 56.0771C47.0706 54.5585 47.0504 52.1862 47.0504 50.7966L47.0404 48.2755L47.2821 48.1167C47.4231 48.0273 47.7151 47.8884 47.9367 47.809C48.2388 47.6998 48.3596 47.5906 48.3798 47.4219C48.41 47.2333 48.3798 47.1936 48.2287 47.2432C47.6144 47.4417 47.1914 47.541 47.1512 47.5013C47.0404 47.3921 46.99 45.1489 47.0807 43.9379C47.1411 43.2034 47.1411 42.5682 47.1008 42.5185C47.0605 42.4788 46.6778 42.7667 46.2448 43.1538V43.1538ZM59.5381 43.4714C59.3568 43.6004 59.3568 43.6104 58.7224 44.7221C58.5008 45.1092 58.239 45.4466 58.1383 45.4863C58.0174 45.526 57.7757 45.3772 57.3729 45.0397C57.0506 44.7618 56.7284 44.5335 56.6679 44.5335C56.5169 44.5335 56.0838 44.99 55.4292 45.8238C55.0264 46.3499 54.966 46.4789 55.0969 46.4988C55.1976 46.5186 55.3084 46.4888 55.3487 46.4293C55.3789 46.3598 55.54 46.3002 55.6911 46.2903C56.0335 46.2705 56.3255 46.598 56.4665 47.1737C56.5169 47.3921 56.5572 49.546 56.5471 52.0274L56.537 56.4841L56.8593 56.7521C57.3729 57.1789 57.8059 57.3774 58.0778 57.298C58.3598 57.2186 59.1755 56.2856 59.1755 56.0374C59.1755 55.9382 59.095 55.8389 59.0043 55.7992C58.9036 55.7694 58.7324 55.6205 58.6217 55.4716C58.4303 55.2136 58.4202 55.0448 58.4202 50.6378C58.4202 45.7742 58.4505 45.4268 58.8936 45.4268C59.0043 45.4268 59.3165 45.665 59.5985 45.9727C59.8704 46.2705 60.1625 46.5186 60.233 46.5186C60.3639 46.5186 61.0084 45.526 61.1393 45.1389C61.1796 44.99 61.0386 44.7618 60.4847 44.1464C60.092 43.6997 59.7596 43.3424 59.7395 43.3424C59.7294 43.3424 59.6388 43.4019 59.5381 43.4714ZM52.2671 46.2903C50.2126 48.0373 49.84 48.4442 49.5883 49.2383C49.5278 49.407 49.4775 51.2631 49.4573 53.417C49.4372 56.4245 49.4573 57.3575 49.558 57.6057C49.6587 57.8241 49.9307 58.0623 50.555 58.4494C52.1261 59.4022 52.2066 59.4419 52.4282 59.3228C52.7504 59.1541 54.4625 56.8613 54.3315 56.7818C54.261 56.7421 54.0395 56.9109 53.7978 57.1789C53.4655 57.5362 53.3144 57.6355 53.0526 57.6355C52.68 57.6355 52.0455 57.3278 51.6225 56.9407L51.3204 56.6627V55.1739C51.3204 54.35 51.3506 53.6155 51.3808 53.5262C51.411 53.4369 52.0858 52.8413 52.8713 52.1961C54.7646 50.6279 54.9459 50.4492 54.9459 50.1812C54.9459 49.9629 54.8451 49.675 54.1201 47.7593C53.1936 45.3275 53.2943 45.4069 52.2671 46.2903V46.2903ZM52.0354 47.6601C52.0757 47.8288 52.3577 48.5931 52.6598 49.3673C53.4151 51.2929 53.395 51.2135 53.0022 51.5609C52.2469 52.2557 51.5722 52.7718 51.4715 52.7421C51.411 52.7123 51.3708 51.8388 51.3708 50.1713C51.3708 48.1365 51.401 47.6104 51.5118 47.4715C51.7132 47.2333 51.9549 47.3127 52.0354 47.6601V47.6601Z" fill="black"/>
<path d="M23.0419 47.5609C22.5887 47.9182 22.2161 48.2557 22.2161 48.3053C22.2161 48.4343 22.5485 48.4343 22.6894 48.2954C22.8506 48.1366 23.1628 48.3351 23.4447 48.7718L23.6764 49.149L23.7267 58.4891C23.7771 67.5017 23.7871 67.8491 23.9684 68.0477C24.2202 68.3157 25.3078 68.8516 25.6099 68.8516C25.902 68.8516 26.8486 68.008 26.8486 67.7499C26.8486 67.6308 26.6774 67.4819 26.3451 67.3132C26.0732 67.1742 25.8013 66.9757 25.7409 66.8764C25.6804 66.7474 25.6402 65.1295 25.6402 62.2808V57.8737L25.8818 57.5462C26.2444 57.0598 26.8486 56.4444 26.9493 56.4444C27.0803 56.4444 27.4327 56.8315 27.6341 57.1889C27.7852 57.4469 27.8154 58.0226 27.8557 61.8738L27.9061 66.261L28.188 66.5489C28.5002 66.8764 29.4469 67.3628 29.749 67.3628C30.0008 67.3628 30.8568 66.5886 30.897 66.3305C30.9172 66.1915 30.8064 66.0824 30.5345 65.9335C30.3129 65.8144 30.041 65.596 29.9303 65.4471C29.7288 65.1692 29.7188 65.0501 29.6986 60.9309C29.6684 56.0077 29.6986 56.1764 28.752 55.303C28.4197 55.0052 28.1075 54.7571 28.0672 54.7571C27.9363 54.7571 27.6644 55.0151 26.7479 56.0176C26.2947 56.5238 25.8516 56.9407 25.7811 56.9407C25.6603 56.9407 25.6402 56.2459 25.6402 52.9109C25.6402 50.2508 25.5999 48.742 25.5294 48.4443C25.3783 47.8785 24.5022 46.9157 24.1195 46.9157C23.9684 46.9157 23.5656 47.1539 23.0419 47.5609V47.5609ZM40.6454 50.4294C39.7391 51.015 39.0845 51.6999 38.7018 52.4642C38.4098 53.0597 38.3795 53.1987 38.3795 54.0622C38.3795 55.4816 38.732 56.0673 40.5347 57.705C41.9244 58.9656 42.2265 59.3229 42.4179 59.9979C42.5589 60.4644 42.5689 60.6331 42.4582 61.0996C42.2668 61.9235 41.7734 62.5786 41.4209 62.4396C41.3403 62.4098 41.0684 62.112 40.8167 61.7646C40.3333 61.1195 39.9103 60.7522 39.4068 60.5339C38.7924 60.2758 38.5205 60.4247 37.8357 61.4371C37.4228 62.0326 37.4732 62.2808 37.9364 62.0525C38.1278 61.9532 38.3493 61.9135 38.5407 61.9532C38.8327 62.0227 39.5477 62.519 40.2728 63.194C40.8871 63.7498 40.8771 63.7498 41.6324 63.1046C43.1329 61.8341 43.7875 60.782 43.8479 59.5512C43.9285 58.0921 43.4753 57.3278 41.4813 55.5412C39.8197 54.0523 39.6182 53.7645 39.5578 52.8215C39.5276 52.2161 39.5477 52.087 39.7592 51.7793C40.1218 51.2533 40.293 51.283 40.9677 51.9778C41.6324 52.6528 42.1359 52.9208 42.5488 52.8215C42.8308 52.752 43.4652 52.2061 43.4652 52.0275C43.4652 51.8984 41.5216 49.9927 41.3907 49.9927C41.3403 50.0026 41.008 50.1912 40.6454 50.4294V50.4294ZM35.0965 52.3054C32.4882 54.628 32.458 54.6578 32.1559 55.2434C31.9343 55.6901 31.9343 55.7893 31.9041 59.7001C31.884 63.1443 31.894 63.7399 32.035 64.0178C32.1559 64.2759 32.4379 64.4843 33.4046 65.0104C34.0794 65.3776 34.734 65.6754 34.8649 65.6754C35.0965 65.6754 35.5094 65.3081 35.7511 64.8913C35.8115 64.7821 36.0734 64.3851 36.3453 64.0079C36.9394 63.1443 36.9596 62.916 36.3755 63.5215C35.8417 64.0873 35.6202 64.1071 34.734 63.7002C33.8377 63.2734 33.7672 63.1344 33.7571 61.6257C33.737 59.7795 33.7068 59.839 35.1569 58.6777C36.1036 57.9134 37.2718 56.9109 37.3826 56.7621C37.5034 56.5933 37.5437 56.7025 36.4762 53.9134C35.6403 51.7098 35.6907 51.7793 35.0965 52.3054V52.3054ZM34.4117 53.8737C34.6333 54.2707 35.7108 57.3477 35.7108 57.5561C35.7108 57.7249 35.59 57.8936 35.2879 58.112C35.0462 58.2807 34.6836 58.5785 34.4621 58.777C33.7873 59.4023 33.7773 59.3725 33.8175 56.4444C33.8377 54.2707 33.8679 53.8439 33.9988 53.7645C34.1801 53.6454 34.311 53.6851 34.4117 53.8737V53.8737Z" fill="black"/>
</svg>
