<svg width="100" height="100" viewBox="0 0 100 100" fill="none" xmlns="http://www.w3.org/2000/svg">
<path fill-rule="evenodd" clip-rule="evenodd" d="M0 0H100V100H0V0Z" fill="white"/>
<path fill-rule="evenodd" clip-rule="evenodd" d="M55.6412 48.2703V55.5806C55.6412 56.5595 54.9886 57.2122 54.4008 57.6687H61.1238C60.536 57.2116 59.8834 56.559 59.8834 55.5806V44.4852C59.8834 43.5063 60.536 42.8531 61.1238 42.3966H55.0545C55.4457 42.4614 55.3471 44.2565 55.0545 44.6808L51.2689 49.9019L47.0262 44.1257C46.8306 43.7994 46.9287 42.7224 47.6789 42.3966H41.3481C41.9353 42.8531 42.588 43.5063 42.588 44.4852V55.5806C42.588 56.5595 41.9353 57.2122 41.3481 57.6687H46.5692C45.9819 57.2116 45.3293 56.559 45.3293 55.5806V48.5966L50.3548 55.4498L55.6412 48.2703V48.2703ZM16.9385 46.8997L16.1551 42.8531C13.4792 42.0703 11.5866 42.2005 9.95453 42.2005C8.32294 42.2005 1.60046 42.4614 1.47024 50.1634C1.40539 55.1235 4.9949 58.1906 10.6077 58.1258C12.7617 58.1258 16.8083 57.538 17.5911 53.6216C18.0477 51.2731 15.8288 51.0116 15.3069 51.1423C14.7845 51.2731 14.4581 51.4028 14.4581 52.5125C14.4581 53.6221 13.4138 55.0576 10.6731 55.0576C7.67082 55.0576 6.23481 53.1002 6.23481 50.0326C6.23533 46.9651 8.77999 42.5268 16.9385 46.8997C16.9385 46.8997 8.77999 42.5268 16.9385 46.8997V46.8997ZM28.8675 49.8122C30.025 47.4366 31.6892 45.2816 33.3203 45.1379C33.8427 45.1379 33.9081 45.6603 33.9081 45.9212V48.4011C32.6677 49.7068 30.9053 50.0332 29.0782 49.8371L28.8675 49.8122L27.7454 52.6281C30.0333 52.8377 32.2791 52.6411 33.9076 51.5999V55.5811C33.9076 56.56 33.2549 57.2127 32.6672 57.6692H39.1935C38.6063 57.2122 37.9536 56.5595 37.9536 55.5811V44.4852C37.9536 43.5063 38.6063 42.8531 39.1935 42.3966H23.5956L23.8565 45.4642C26.7934 44.8769 27.5114 44.8116 28.6865 44.8116C27.6422 45.7978 26.6518 47.6089 26.0775 49.3292C25.0005 49.0599 23.8975 48.6672 22.8776 48.0753L21.3114 51.2082C22.5066 51.6014 23.7219 51.9304 24.9522 52.1939C24.2565 53.3207 23.1116 54.3858 21.1806 54.5368V57.8005C22.7863 57.8005 25.8445 57.6697 27.7454 52.6287L28.8675 49.8122V49.8122ZM89.1224 54.9279V44.4852C89.1224 43.5063 89.7761 42.8531 90.3628 42.3966H83.8364C84.4242 42.8531 85.0769 43.5063 85.0769 44.4852V55.5806C85.0769 56.5595 84.4242 57.2122 83.8364 57.6687H93.888C96.6288 57.6687 99.1558 56.3396 98.3911 53.9479C97.8692 52.3164 96.2371 52.1861 95.5844 52.5778C94.9318 52.969 94.4099 53.9479 94.9967 54.9274H89.1224V54.9279V54.9279ZM79.3333 46.9651L80.7367 44.2565C78.2237 42.3966 75.8741 41.8742 73.1333 41.8742C69.6091 41.9582 64.5836 43.9623 64.5836 49.7712C64.5836 55.5801 69.6097 57.5847 73.1333 57.6687C75.8741 57.7335 77.3101 57.3424 78.8763 56.559C79.463 56.2327 80.5727 55.5801 81.0952 54.9274L79.3333 52.5778C76.9179 54.7308 75.8741 54.7308 73.9167 54.7967C72.4796 54.7967 70.1959 54.144 69.8696 51.1418H76.7223V48.1391H69.8696C70.1959 45.3978 72.4796 44.7452 73.9167 44.7452C75.8082 44.7457 76.9837 45.0071 79.3333 46.9651C76.9837 45.0071 79.3333 46.9651 79.3333 46.9651Z" fill="black"/>
</svg>
