<svg width="100" height="100" viewBox="0 0 100 100" fill="none" xmlns="http://www.w3.org/2000/svg">
<path fill-rule="evenodd" clip-rule="evenodd" d="M0 0H100V100H0V0Z" fill="#28539C"/>
<path fill-rule="evenodd" clip-rule="evenodd" d="M75.4171 74.4927C75.8275 74.461 76.0796 74.3977 76.2378 74.2717C76.4588 74.1134 76.5538 73.8291 76.5854 73.4188C76.5854 73.1978 76.6171 72.9762 76.6171 72.7558V66.5993C76.6171 66.3777 76.5854 66.2833 76.5854 66.0623C76.5854 64.9262 75.7009 65.3044 74.8801 65.115C74.5964 64.9889 74.5326 64.7046 74.8801 64.5786C77.3434 64.7368 79.7744 64.7368 82.2376 64.5786C82.6164 64.5469 82.6163 64.6419 82.4898 65.0522C82.3315 65.6208 82.5525 66.1889 82.5852 66.7892C82.5852 67.0102 82.3632 67.0413 82.2376 66.7892C82.1422 66.6309 82.1738 66.4104 82.1422 66.2206C81.9528 65.5259 81.4159 65.3044 80.5007 65.3044H78.4806C78.2274 65.3044 78.0702 65.3993 78.0375 65.5892C78.0375 65.7147 78.0375 65.8102 78.0059 65.9363V69.2197H79.9633C80.784 69.2197 81.2582 68.7144 81.3837 67.7676C81.3837 67.5461 81.8267 67.5461 81.7941 67.7676C81.6369 68.967 81.5731 70.1037 81.7941 71.3037C81.8262 71.5558 81.4154 71.5558 81.3837 71.3037C81.1316 70.3247 80.9733 69.8827 79.9633 69.8827H78.0059V73.672C78.0059 73.9874 78.1641 74.1456 78.48 74.1773C78.6056 74.1773 78.7322 74.1773 78.8582 74.2089H80.0266C80.2797 74.2089 80.5324 74.2089 80.7529 74.1773C81.6374 74.019 81.6063 74.0823 82.206 73.4193C82.3943 73.2299 82.5209 72.9768 82.6791 72.6935C82.7419 72.5353 82.8057 72.3776 82.9001 72.2198H83.2161C83.2477 73.1355 82.9001 74.7775 82.2999 74.9347C79.9633 75.5977 78.7638 74.5243 75.4482 74.998C75.1961 74.9975 75.1012 74.6509 75.4171 74.4927V74.4927ZM67.3343 71.4303C68.5338 74.5876 70.9965 74.7459 71.881 73.7347C73.3015 72.156 70.7444 70.5146 69.45 70.0088C69.1024 69.8827 68.8502 69.6306 68.5966 69.4407C67.9341 68.967 67.5237 68.4301 67.3655 67.8304C67.27 67.5782 67.2389 67.2939 67.2389 67.0096C67.2389 66.7253 67.2705 66.4727 67.3655 66.1889C67.7442 64.9573 68.5966 64.3576 69.8603 64.3254C70.2707 64.3254 70.6183 64.3887 70.9332 64.5148C71.1853 64.5781 71.439 64.673 71.6595 64.7674C72.1326 64.9568 72.3858 65.2727 72.6068 64.8624C72.7012 64.673 72.9534 64.6414 72.9855 64.8624C73.0172 65.778 73.1749 66.7253 73.2693 67.6721C73.301 67.8615 73.0172 67.8304 72.8906 67.6721C72.8278 67.5144 72.7962 67.3251 72.7324 67.1357C72.2903 65.7464 70.0808 64.4836 68.9436 65.431C68.2495 66.0307 68.0913 66.978 69.3224 67.7354C70.7428 68.6194 72.9528 69.63 73.4587 71.3348C73.5214 71.6191 73.5531 71.8717 73.5531 72.1877C73.5531 73.1034 73.2382 73.8291 72.5741 74.3344C71.9428 74.8081 71.1848 75.0608 70.3013 75.0608C69.7955 75.0608 69.3851 74.9975 69.0375 74.8714C68.8165 74.7765 68.5644 74.682 68.3434 74.5871C67.933 74.4294 67.712 74.4294 67.6171 74.7132C67.4915 74.9025 67.2384 74.9342 67.2384 74.7132C67.1756 73.6398 67.144 72.5348 66.8597 71.4609C67.0184 71.1771 67.1761 71.146 67.3343 71.4303V71.4303ZM84.7948 71.4303C85.9631 74.5876 88.4569 74.7459 89.3414 73.7347C90.7619 72.156 88.2048 70.5146 86.9104 70.0088C86.5628 69.8827 86.3107 69.6306 86.057 69.4407C85.3945 68.967 84.9841 68.4301 84.8259 67.8304C84.7304 67.5782 84.6676 67.2939 84.6993 67.0096C84.6676 66.7253 84.7309 66.4727 84.8259 66.1889C85.2046 64.9573 86.057 64.3576 87.3207 64.3254C87.6995 64.3254 88.0777 64.3887 88.3936 64.5148C88.6457 64.5781 88.8678 64.673 89.1199 64.7674C89.593 64.9568 89.8462 65.2727 90.0361 64.8624C90.1305 64.673 90.4143 64.6414 90.4143 64.8624C90.4143 65.778 90.5725 66.7253 90.7302 67.6721C90.7619 67.8615 90.4465 67.8304 90.3515 67.6721C90.2571 67.5144 90.2571 67.3251 90.1933 67.1357C89.7201 65.7464 87.5418 64.4836 86.3734 65.431C85.7099 66.0307 85.52 66.978 86.7838 67.7354C88.2042 68.6194 90.3832 69.63 90.8885 71.3348C90.9829 71.6191 91.0151 71.8717 91.0151 72.1877C91.0151 73.1034 90.6675 73.8291 90.0361 74.3344C89.4037 74.8081 88.6457 75.0608 87.7311 75.0608C87.2569 75.0608 86.8466 74.9975 86.499 74.8714C86.2468 74.7765 86.0258 74.6504 85.7737 74.5871C85.395 74.4294 85.174 74.4294 85.0785 74.7132C84.9841 74.9342 84.6998 74.9025 84.6998 74.7132C84.7315 73.6398 84.5105 72.4398 84.3211 71.4609C84.2578 71.146 84.637 71.146 84.7948 71.4303V71.4303ZM61.4928 74.4927C62.5028 74.3666 62.3773 73.4509 62.3773 72.6297V66.7886C62.3773 66.0934 62.3451 65.6831 62.2191 65.4937C62.0608 65.2099 61.6505 65.0834 61.0196 65.0517C60.7348 64.9256 60.7348 64.6414 61.0196 64.5148C62.5029 64.7363 63.5456 64.673 64.9661 64.5148C65.2182 64.6414 65.1243 64.9256 64.9661 65.0517C64.3663 65.0834 64.3663 65.2099 64.177 65.4937C64.0815 65.652 64.0188 66.0934 64.0188 66.7886V72.6297C64.0188 73.3555 64.0815 73.798 64.1453 74.019C64.2709 74.3344 64.7129 74.3977 65.4081 74.4927C65.6291 74.5243 65.6291 74.8714 65.4081 74.8714C63.9238 74.8081 62.9449 74.7453 61.4928 74.8714C61.2718 74.8714 61.209 74.5238 61.4928 74.4927V74.4927ZM41.633 74.3033C42.1699 74.2405 42.3593 73.893 42.3909 72.693L42.4226 72.1244V66.4727L42.3909 65.9363C42.3909 65.5259 42.2327 65.3365 42.0433 65.1783C41.8856 65.0522 41.3492 65.0834 40.9699 64.9573C40.8122 64.9256 40.8122 64.5469 40.9699 64.5469C42.3593 64.7046 43.7169 64.7046 45.0746 64.5469C45.2956 64.5148 45.2328 64.9256 45.0746 64.9573C44.6642 65.115 44.3488 65.0834 44.1906 65.1783C44.0012 65.3044 43.8752 65.5259 43.8752 65.9995V73.4821C43.8752 73.7342 43.9068 74.0185 44.0017 74.0185C46.3695 73.8924 47.9482 74.5555 48.9588 72.4082C49.0537 72.2188 49.2747 72.1872 49.3059 72.4082C49.4641 74.1129 48.2958 75.123 46.8432 74.9658C45.1695 74.8076 43.7175 74.8076 41.6335 74.8709C41.2854 74.8403 41.4431 74.3344 41.633 74.3033ZM33.0132 64.5469C33.2026 64.5469 33.171 64.9573 33.0132 64.9889C32.5079 65.115 32.1609 65.3677 32.0976 65.9363C32.0659 66.1889 32.0343 66.4099 32.0343 66.6937V70.5146C32.0343 71.0199 32.0659 71.493 32.1287 71.9667C32.2869 73.6087 33.2337 74.3983 34.9706 74.3983C36.2023 74.3666 37.0863 74.0195 37.6232 73.3249C37.7809 73.1355 37.907 72.9145 37.9703 72.6935C38.0964 72.2831 38.1913 71.8406 38.1913 71.3358V66.6314C38.1913 66.316 38.1596 66.0945 38.0964 65.7785C38.0014 65.3682 37.8121 65.1472 37.465 65.0839C37.244 65.0211 36.928 65.0839 36.6121 64.9889C36.4855 64.9262 36.4544 64.5469 36.6121 64.5469C37.7804 64.6419 38.9487 64.673 40.0854 64.5469C40.2431 64.5469 40.2431 64.9256 40.0854 64.9889C39.6117 65.115 39.1381 65.3677 39.1064 65.9051C39.0748 66.2522 39.0432 66.5676 39.0432 66.9785V71.2409C39.0432 72.251 38.8221 73.0406 38.3485 73.6087C38.1591 73.8613 37.9376 74.0823 37.6538 74.2405C37.2751 74.5243 36.8964 74.6826 36.5172 74.8086C35.889 74.9764 35.2416 75.0613 34.5914 75.0613C33.96 75.0613 33.3914 74.998 32.8545 74.8403C31.6867 74.5243 30.9288 73.893 30.5495 72.8829C30.4234 72.5986 30.3602 72.251 30.2969 71.9039C30.2339 71.4223 30.2024 70.937 30.2024 70.4513V66.6937C30.2024 66.4099 30.1703 66.1889 30.1392 65.8413C30.0759 65.4937 29.9181 65.2727 29.6338 65.1467C29.4445 65.0834 29.0969 65.1145 28.6549 64.9884C28.4655 64.9256 28.4967 64.5464 28.6549 64.5464C30.1085 64.6102 31.5923 64.6419 33.0132 64.5469V64.5469ZM15.142 69.8194C16.4876 69.9143 17.8382 69.9143 19.1839 69.8194C19.3104 69.946 19.3104 70.0721 19.1839 70.1981C18.5525 70.1981 18.2365 70.4508 18.2049 70.9872C18.1733 71.1766 18.1733 71.3659 18.1733 71.5869V73.3238C14.1635 76.102 8.98547 75.0919 8.98547 69.7561C8.98547 65.7464 12.0162 63.5358 15.6794 64.5464C15.8688 64.6097 16.0581 64.6414 16.2475 64.7041C16.5002 64.7991 16.7212 64.8307 16.8472 64.8307C17.0682 64.8307 17.3842 64.5148 17.5102 64.3249C17.6047 64.1355 17.8257 64.0728 17.889 64.3249C18.11 65.3983 18.0783 66.5355 18.0472 67.6405C18.0472 67.8298 17.7945 67.8615 17.6685 67.6405C17.5735 67.4828 17.5424 67.2934 17.4791 67.1041C17.2265 66.4722 16.7844 65.9674 16.1531 65.5887C12.9957 63.7573 10.7857 66.5671 10.7857 69.725C10.7857 73.0084 13.1218 75.8815 16.5323 73.1978V71.5558C16.5323 71.0194 16.4374 70.6718 16.2164 70.5141C16.0587 70.3558 15.7111 70.2614 15.143 70.1981C15.0159 70.0721 15.0159 69.946 15.142 69.8194V69.8194ZM22.5933 69.5356H25.5613L23.9827 66.1256L22.5933 69.5356ZM18.9312 74.3977C19.2466 74.3344 19.5626 74.019 19.8469 73.5137C20.0362 73.1666 20.2256 72.7879 20.4155 72.3454L24.0148 64.3254C24.1731 64.1044 24.2991 64.1044 24.4257 64.3254L28.562 73.2616C28.7514 73.672 28.9091 73.9874 29.0357 74.114C29.225 74.3666 29.541 74.3666 29.983 74.4927C30.1407 74.5243 30.1407 74.8714 29.983 74.8714C28.5876 74.7132 27.1788 74.7132 25.7834 74.8714C25.5307 74.903 25.5624 74.5238 25.7834 74.4927C26.478 74.3977 26.8256 74.3344 26.8256 73.9874C26.794 73.0717 26.257 71.5247 26.0677 70.5774H22.058L21.2367 72.5348L20.9213 73.2927C20.8263 73.5448 20.7952 73.7347 20.7952 73.8924C20.7636 74.24 21.1423 74.3661 21.8686 74.4922C22.058 74.5238 21.9947 74.7448 21.8686 74.8709C20.7636 74.8392 19.658 74.8392 18.553 74.8709C18.3953 74.7448 18.3953 74.5866 18.553 74.4922C18.678 74.4299 18.8046 74.4299 18.9312 74.3977V74.3977ZM49.2104 69.5673C49.2104 68.7465 49.3681 68.0202 49.6524 67.3256C50.0311 66.4416 50.6941 65.7152 51.6415 65.1472C52.525 64.6107 53.5361 64.3259 54.6722 64.3259C55.8089 64.3259 56.8195 64.6107 57.704 65.1472C58.6192 65.7152 59.2827 66.4732 59.6614 67.4205C59.9452 68.0835 60.1034 68.8098 60.1034 69.5989C60.0718 71.0515 59.5976 72.2831 58.6192 73.2932C57.6091 74.3033 56.2836 74.8086 54.6411 74.8086C53.0308 74.8086 51.7047 74.3033 50.663 73.2621C49.6841 72.2826 49.2104 71.051 49.2104 69.5673V69.5673ZM51.0106 70.2303C51.1362 71.0194 51.3893 71.714 51.7047 72.3143C52.0207 72.9768 52.5255 73.4826 53.189 73.8297C53.8831 74.2084 54.6095 74.3033 55.4302 74.1773C56.2836 74.019 56.9772 73.6087 57.483 72.9773C57.9878 72.4092 58.2399 71.7462 58.3354 70.9566C58.4298 70.2619 58.3982 69.5361 58.24 68.7782C58.0189 67.5149 57.5775 66.5365 56.9461 65.873C56.0937 64.9889 55.0515 64.6419 53.7576 64.8629C52.4938 65.0839 51.6103 65.8102 51.1362 67.0102C50.8212 67.8304 50.7574 68.9037 51.0106 70.2303V70.2303ZM37.5594 26.6762C37.4546 26.74 37.4624 26.9008 37.465 26.9325L37.4655 26.9387C37.7545 28.7073 38.7838 34.6832 39.895 37.3083C40.2177 38.0886 40.9928 39.0208 41.6298 39.7446C41.6838 39.8058 41.8093 39.8582 41.9401 39.7482C41.939 39.7497 42.7473 39.109 42.7473 39.109C42.7916 39.0749 42.8216 39.0256 42.8317 38.9706C42.8418 38.9156 42.8311 38.8588 42.8018 38.8113L42.5377 38.2229C42.3919 37.8971 42.3489 37.6938 42.2674 37.3021C42.1689 35.9776 41.9997 34.7522 41.8047 33.406L41.8021 33.3842C41.8016 33.378 41.7964 33.3582 41.7964 33.3582C41.3953 31.5243 40.7884 28.7519 38.6987 27.3206L37.8064 26.7094C37.7067 26.6482 37.6243 26.6373 37.5594 26.6762V26.6762ZM57.8804 42.2965L57.0047 42.4314C56.9866 42.4361 56.888 42.4646 56.8496 42.558C56.8221 42.6249 56.8314 42.7012 56.8792 42.7852C56.8895 42.7992 57.4778 43.442 57.4778 43.442C58.2633 44.3577 59.1478 44.6933 59.7507 44.8147C60.4324 44.9506 61.0668 44.7307 61.0933 44.7218C62.0214 44.3032 62.618 42.9896 62.6434 42.9336L62.9952 42.2742C63.0273 42.1642 63.0035 42.1004 62.977 42.0636C62.9122 41.9707 62.7887 41.9588 62.7752 41.9572L62.4629 41.9401L61.8326 41.923C61.4087 41.9323 58.1196 42.2591 57.8804 42.2965V42.2965ZM44.0853 49.2317C44.0147 49.2815 43.8586 49.5866 43.3569 50.6075L42.711 51.8936C42.7063 51.8983 41.8431 53.1532 41.4477 53.8059L41.2216 54.1794C41.2173 54.187 41.2132 54.1946 41.2091 54.2022L41.0073 54.5177C40.9134 54.6562 40.8428 54.803 40.764 54.9732L40.5876 55.3322C40.5103 55.4888 40.3417 55.8624 40.4211 56.0066C40.4999 56.1503 40.89 56.1067 41.2039 56.0455C41.2094 56.0452 41.215 56.0448 41.2205 56.0445C41.5416 56.0123 42.3567 55.6284 42.3914 55.6123C43.1924 55.1983 43.7683 54.7112 44.105 54.1638C44.163 54.0956 44.196 54.0096 44.1984 53.92C44.1991 53.8788 44.1917 53.8379 44.1766 53.7997C44.173 53.7607 44.1713 53.7215 44.1714 53.6824C44.1714 52.9753 44.74 52.2822 45.2458 51.6674L45.3776 51.5159C45.5166 51.3598 45.6733 51.1834 45.7174 51.0656C45.7261 51.0394 45.7303 51.0118 45.7298 50.9842C45.7298 50.911 45.7065 50.7901 45.6256 50.5728L45.4917 50.3404V50.3414C45.319 50.1162 44.9791 49.5824 44.8401 49.3624C44.7281 49.199 44.5973 49.2006 44.5823 49.2021C44.1978 49.1539 44.1133 49.213 44.0853 49.2317V49.2317ZM68.7154 33.3147L66.8207 34.1421C66.6157 34.2499 66.411 34.3582 66.2065 34.4669C66.2013 34.469 64.965 35.2643 64.965 35.2643L63.4004 36.2121C61.7407 37.2372 60.0313 38.003 59.0088 38.46L58.2851 38.7952C57.8026 39.0499 57.3476 39.2906 56.972 39.5298L55.5687 40.4252L55.5583 40.4413C55.5531 40.4517 55.4987 40.5456 55.5298 40.6504C55.5438 40.6955 55.5786 40.7593 55.6699 40.805L55.687 40.8138L57.3165 40.7987C57.3897 40.8024 65.1736 40.8869 68.6578 34.6059C68.6661 34.5888 68.884 34.1904 69.0904 33.5367L69.0915 33.531C69.1034 33.4828 69.1392 33.3344 69.0396 33.2649C68.9333 33.1876 68.7641 33.283 68.7154 33.3147V33.3147ZM42.2119 29.8419C42.1388 29.8865 42.1388 29.9794 42.1388 29.9902C42.2871 30.6356 42.6332 32.2491 42.6825 33.628C42.683 33.6451 42.7136 35.504 43.0659 37.7415C43.0659 37.741 43.0767 37.9381 43.277 38.0818C43.2863 38.0875 43.9021 38.4066 43.9021 38.4066C43.9619 38.4377 44.0312 38.4452 44.0962 38.4275C44.1612 38.4098 44.2171 38.3683 44.2528 38.3111L45.2712 36.5229C45.28 36.5083 45.485 36.1457 45.2531 35.4868C45.2484 35.4671 44.5631 32.7907 43.2371 30.5879L43.2339 30.5822L43.0389 30.3586C42.9662 30.2714 42.5009 29.9259 42.4085 29.8569C42.3245 29.8133 42.2617 29.8107 42.2119 29.8419V29.8419ZM53.6238 33.5927C52.4036 33.8376 47.9477 36.7127 47.2323 37.2513L47.0953 37.3851C46.5049 38.003 45.9493 38.5856 45.7231 39.4618C45.7095 39.513 45.7116 39.5671 45.7292 39.6171C45.7467 39.6671 45.779 39.7106 45.8217 39.742C45.8315 39.7482 46.3871 40.0522 46.3871 40.0522C46.3892 40.0538 46.4919 40.1129 46.617 40.1207C47.0237 40.1482 47.3645 40.116 47.667 40.088C47.8761 40.0683 48.0561 40.0512 48.2138 40.0595L48.9437 40.1414L49.0252 40.1529C49.1705 40.1731 49.2421 40.0719 49.254 39.9998L49.3121 39.6429C49.3126 39.6418 49.5834 38.6893 49.7987 38.3329L49.8034 38.3257C49.8081 38.3148 50.2947 37.3135 51.7229 36.6199L52.0471 36.3802L52.0554 36.374L53.2419 34.9437C53.244 34.9447 53.8582 34.4721 53.8582 34.4721C53.8593 34.4721 54.3853 34.1198 54.3853 34.1198C54.4533 34.0742 54.4875 34.0233 54.4875 33.9683C54.4875 33.9637 54.4875 33.959 54.4865 33.9554C54.4772 33.8667 54.389 33.8257 54.3708 33.8184L53.9594 33.6296C53.8074 33.5367 53.6321 33.5907 53.6238 33.5927V33.5927ZM48.5873 48.5791C48.4882 48.6195 48.4556 48.7228 48.4519 48.7337C48.4576 48.7202 47.7977 49.9632 47.7977 49.9632C47.7972 49.9642 47.668 50.1531 47.5824 50.4664L47.2084 51.9087L47.1918 51.9782C47.1913 51.9823 47.0994 52.3771 46.9282 52.6806C46.6152 53.2313 46.2905 53.7753 45.9545 54.3122L45.128 55.6818L45.1203 55.6958L45.114 55.7088L44.9527 56.0232C44.7893 56.335 44.6201 56.6572 44.5076 57.0239L44.3898 57.372C44.3851 57.3871 44.3333 57.5344 44.409 57.6413C44.4391 57.6849 44.5013 57.7357 44.6253 57.7347C44.8319 57.728 45.038 57.7103 45.2427 57.6818C45.2463 57.6818 45.39 57.6662 45.5353 57.5842C46.7067 56.9399 48.0468 56.1015 49.0973 54.7703C49.3634 54.4347 49.4309 54.0611 49.4309 53.7068C49.4309 53.5128 49.4107 53.325 49.3925 53.1517L49.3909 53.1423L49.3889 53.1335C49.371 53.0819 49.361 53.0278 49.3593 52.9732C49.3593 52.9551 49.3614 52.9374 49.365 52.9213C49.4138 52.7361 49.5637 52.4311 49.71 52.1349L49.987 51.546C49.9948 51.531 50.0477 51.4267 50.0477 51.3354V51.3235L49.9875 51.1019C49.9414 50.9629 49.8801 50.8293 49.8049 50.7035L49.7608 50.6252L49.5839 50.2148C49.587 50.2226 49.4682 49.5663 49.4278 49.2052C49.4249 49.1574 49.4123 49.1106 49.3907 49.0678C49.3691 49.0249 49.339 48.987 49.3022 48.9562L48.8291 48.6149C48.7352 48.5619 48.6574 48.5516 48.5873 48.5791V48.5791ZM45.5348 57.5842L45.5337 57.5848L45.5348 57.5842ZM53.6684 40.6903C53.1817 41.5266 53.0707 42.1274 53.3369 42.4781C53.74 43.0088 54.8548 42.7868 55.3155 42.6674C55.3633 42.6545 55.4442 42.614 55.4452 42.4744V42.4718C55.4438 42.438 55.4349 42.4049 55.4191 42.3749C55.4033 42.3449 55.381 42.3189 55.3539 42.2986C55.3166 42.269 55.2465 42.2405 55.1158 42.1891C54.9456 42.1206 54.7127 42.0278 54.6193 41.9344C54.5311 41.8451 54.2847 41.3274 54.1218 40.985L53.975 40.6779C53.9345 40.5954 53.8795 40.5767 53.8401 40.5746C53.7457 40.571 53.6798 40.6696 53.6684 40.6903V40.6903ZM55.316 42.6674V42.6664V42.6674Z" fill="white"/>
<path fill-rule="evenodd" clip-rule="evenodd" d="M42.1154 44.0121L41.9784 44.0614C41.6526 44.175 41.4882 44.3805 41.4472 44.7249C41.4462 44.7312 41.4358 44.9708 41.4358 44.9708V45.099L41.4415 45.1524C41.4524 45.2411 41.5224 45.3682 41.6672 45.3579C41.6739 45.3573 42.077 45.293 42.077 45.293C43.8995 45.003 45.914 45.2209 48.0639 45.9399L48.2361 46.0115C49.241 46.3337 50.2651 46.8281 51.3753 47.5233C52.5638 48.3041 53.961 49.4184 54.1254 51.0682C54.1254 51.0682 54.1871 51.683 54.1913 51.7167C54.1892 51.7271 54.1861 51.7369 54.1861 51.7478C54.1861 51.7836 54.197 51.8225 54.2286 51.851C54.3008 51.9154 54.4159 51.8734 54.4963 51.8365C54.5114 51.8272 55.0042 51.4443 55.0042 51.4443C55.2372 51.2622 55.5282 51.0033 55.7005 50.6065C55.7103 50.5868 55.718 50.5661 55.7233 50.5447C56.1679 49.0516 55.482 47.6011 53.6844 46.2325C53.6772 46.2269 53.6693 46.2221 53.6611 46.218C51.5647 44.7488 49.1186 43.8632 46.3949 43.5877L46.3721 43.5857L46.3555 43.5851C44.9324 43.5405 43.4331 43.5369 42.1154 44.0121V44.0121Z" fill="white"/>
<path fill-rule="evenodd" clip-rule="evenodd" d="M40.4927 52.2583C40.5186 52.2744 40.5392 52.2979 40.5518 52.3257C40.5606 52.3509 40.5652 52.3774 40.5653 52.4041C40.5646 52.4376 40.5527 52.4699 40.5316 52.4959C40.5305 52.5016 40.5347 52.4907 40.5316 52.4959C40.4932 52.539 40.4958 52.541 40.4563 52.5846C40.4159 52.6308 40.4174 52.6329 40.3775 52.6796C40.3334 52.7288 40.3484 52.7418 40.3048 52.7921C40.2628 52.8383 40.2571 52.8321 40.2156 52.8783C40.1772 52.9213 40.1565 52.9032 40.1181 52.9457C40.0771 52.9919 40.0916 53.0054 40.0501 53.051C40.0122 53.0941 39.9988 53.0832 39.9609 53.1262C39.9178 53.174 39.9225 53.1781 39.881 53.2243C39.8416 53.2689 39.8509 53.2777 39.811 53.3218C39.7746 53.3633 39.7695 53.3592 39.7331 53.4002C39.6922 53.4474 39.6973 53.4515 39.6553 53.4977C39.6159 53.5423 39.6278 53.5522 39.5879 53.5968C39.5495 53.6398 39.5324 53.6248 39.4945 53.6673C39.4582 53.7083 39.4712 53.7202 39.4354 53.7612C39.3996 53.8007 39.397 53.7986 39.3617 53.8385C39.3368 53.866 39.3233 53.8541 39.2984 53.8826C39.2963 53.8857 39.3062 53.8863 39.3041 53.8889C39.2743 53.9233 39.2368 53.9503 39.1946 53.9677C39.1578 53.9838 39.1189 53.9781 39.0764 53.9781C39.0406 53.9781 39.0074 53.99 38.9762 53.9791C38.9491 53.9707 38.9234 53.9583 38.9 53.9423C38.859 53.9117 38.8133 53.892 38.7734 53.8629C38.7334 53.8323 38.6966 53.7981 38.6577 53.7669C38.6193 53.7358 38.5913 53.6902 38.5534 53.6596C38.5145 53.6284 38.4771 53.5968 38.4393 53.5662C38.4014 53.5345 38.3464 53.5236 38.3096 53.4925C38.2722 53.4609 38.2421 53.4214 38.2053 53.3903C38.1685 53.3587 38.1353 53.3229 38.1 53.2917C38.0637 53.2596 38.0341 53.2207 37.9988 53.189C37.963 53.1568 37.9397 53.1133 37.9054 53.0811C37.8707 53.0489 37.8292 53.0251 37.7955 52.9913C37.7612 52.9592 37.714 52.9405 37.6808 52.9078C37.6471 52.8751 37.6092 52.8461 37.577 52.8129L37.4806 52.7128C37.4484 52.6806 37.4323 52.6318 37.4012 52.5986C37.3701 52.5654 37.3348 52.5358 37.3036 52.5016C37.273 52.4674 37.2201 52.4534 37.19 52.4196C37.1605 52.3854 37.135 52.347 37.106 52.3133C37.0775 52.279 37.0692 52.2266 37.0411 52.1924C37.0142 52.1571 36.9758 52.1302 36.9488 52.0949C36.9208 52.0606 36.9016 52.0191 36.8751 51.9839C36.8481 51.9486 36.8061 51.9247 36.7802 51.8889C36.7537 51.8542 36.7236 51.8215 36.6982 51.7857C36.6728 51.7509 36.6661 51.7022 36.6417 51.6664C36.6168 51.6306 36.6064 51.5854 36.583 51.5486C36.5592 51.5128 36.5156 51.4895 36.4923 51.4531L36.4227 51.3442C36.3999 51.3084 36.3807 51.2695 36.3589 51.2332L36.2941 51.1232C36.2733 51.0863 36.2593 51.0448 36.2391 51.008C36.2183 50.9707 36.2054 50.9302 36.1862 50.8923C36.1661 50.8555 36.1471 50.8181 36.1291 50.7803C36.1089 50.7424 36.0549 50.7222 36.0373 50.6843C36.0191 50.6464 36.0451 50.5878 36.0279 50.5504C36.0103 50.5126 35.9787 50.4809 35.9615 50.4425C35.9455 50.4047 35.9211 50.3699 35.9055 50.332C35.8894 50.2931 35.8848 50.2511 35.8697 50.2122C35.8552 50.1738 35.849 50.1323 35.8344 50.0934C35.8199 50.0545 35.8137 50.0135 35.7997 49.9746C35.7867 49.9362 35.7613 49.9009 35.7478 49.862C35.7348 49.8236 35.7219 49.7852 35.7099 49.7453C35.6975 49.7064 35.6752 49.6695 35.6638 49.6301C35.6529 49.5912 35.6508 49.5492 35.6404 49.5103C35.63 49.4708 35.6129 49.4324 35.6031 49.393C35.5927 49.3531 35.5673 49.3178 35.5574 49.2784C35.5486 49.2379 35.5673 49.1917 35.559 49.1513C35.5507 49.1118 35.5216 49.076 35.5138 49.0361C35.506 48.9951 35.4842 48.9578 35.4775 48.9173C35.4708 48.8773 35.4754 48.8348 35.4692 48.7949C35.4625 48.7544 35.4718 48.7113 35.4666 48.6709C35.4604 48.6309 35.4495 48.5915 35.4438 48.5515C35.4391 48.5106 35.4319 48.4706 35.4272 48.4296C35.423 48.3892 35.4106 48.3487 35.4069 48.3082L35.3966 48.1853L35.3872 48.0623C35.3846 48.0208 35.4018 47.9788 35.3997 47.9383C35.3986 47.8968 35.3769 47.8569 35.3758 47.8154C35.3748 47.7744 35.4075 47.7329 35.4069 47.6919C35.4069 47.6504 35.4178 47.6094 35.4189 47.5684C35.4189 47.5269 35.4054 47.4854 35.4064 47.4444C35.4075 47.4024 35.3717 47.3599 35.3737 47.3184C35.3758 47.2769 35.4038 47.2369 35.4064 47.1954C35.4085 47.1534 35.4085 47.1114 35.4121 47.0704C35.4152 47.0284 35.4396 46.9889 35.4443 46.9474C35.4485 46.9054 35.4443 46.8624 35.449 46.8214C35.4531 46.7799 35.4329 46.7347 35.4381 46.6932C35.4433 46.6512 35.4697 46.6118 35.4749 46.5703C35.4806 46.5283 35.4874 46.4862 35.4925 46.4447C35.4988 46.4027 35.4988 46.3596 35.505 46.3176C35.5123 46.2751 35.5356 46.2367 35.5434 46.1942C35.5512 46.1516 35.5486 46.108 35.5569 46.066C35.5652 46.0235 35.5574 45.9783 35.5662 45.9363C35.5724 45.9041 35.5735 45.8715 35.5802 45.8393C35.588 45.8077 35.6056 45.7786 35.6129 45.7464C35.6207 45.7148 35.6466 45.6873 35.6549 45.6562C35.6627 45.624 35.6824 45.596 35.6912 45.5643C35.6995 45.5322 35.6975 45.4985 35.7053 45.4668C35.7141 45.4346 35.7167 45.4014 35.7255 45.3698C35.7338 45.3376 35.7182 45.2987 35.727 45.2671C35.7359 45.2349 35.7675 45.2095 35.7774 45.1773C35.7867 45.1457 35.7934 45.1125 35.8028 45.0808C35.8126 45.0492 35.8142 45.0144 35.8246 44.9833C35.835 44.9511 35.8365 44.9164 35.8464 44.8847C35.8573 44.8526 35.8811 44.8251 35.8925 44.7934C35.9029 44.7613 35.933 44.7358 35.9444 44.7042C35.9553 44.672 35.9486 44.6336 35.96 44.602C35.9714 44.5703 35.9849 44.5387 35.9968 44.507C36.0087 44.4754 36.0093 44.4391 36.0217 44.4069C36.0342 44.3748 36.0757 44.354 36.0876 44.3229C36.1006 44.2902 36.098 44.2523 36.1094 44.2202C36.1234 44.188 36.1327 44.1548 36.1457 44.1231C36.1592 44.091 36.1597 44.0541 36.1732 44.022C36.1867 43.9898 36.2163 43.9649 36.2297 43.9333C36.2448 43.9011 36.2505 43.8653 36.265 43.8337C36.2785 43.802 36.2915 43.7688 36.3055 43.7372C36.3205 43.7045 36.3491 43.6796 36.3641 43.6474C36.3792 43.6152 36.3677 43.5711 36.3828 43.5395C36.3989 43.5073 36.4352 43.4855 36.4502 43.4539C36.4658 43.4217 36.4803 43.389 36.4964 43.3579C36.512 43.3252 36.5239 43.2915 36.5405 43.2599C36.5566 43.2277 36.5633 43.1904 36.5794 43.1597C36.596 43.1276 36.6007 43.0882 36.6178 43.0575C36.6344 43.0254 36.6837 43.0103 36.7003 42.9792C36.7184 42.9476 36.7257 42.9107 36.7423 42.8791C36.7605 42.8469 36.774 42.8122 36.7916 42.7815C36.8092 42.7494 36.8523 42.7317 36.8699 42.7006C36.8881 42.6684 36.8912 42.6275 36.9094 42.5969C36.928 42.5647 36.9488 42.5341 36.9675 42.504C36.9867 42.4718 37.011 42.4433 37.0292 42.4132C37.0432 42.3914 37.0702 42.3795 37.0832 42.3593C37.0966 42.3385 37.0816 42.2991 37.0951 42.2788C37.1086 42.2571 37.1361 42.2456 37.149 42.2254C37.1625 42.2036 37.1771 42.1834 37.19 42.1637C37.2051 42.1419 37.2009 42.1097 37.2139 42.09C37.2284 42.0687 37.2528 42.0558 37.2663 42.0371C37.2813 42.0153 37.2964 41.9961 37.3094 41.9774C37.3244 41.9562 37.3254 41.9271 37.3384 41.9095C37.3602 41.8773 37.3846 41.8555 37.3986 41.8363C37.4178 41.8109 37.4105 41.8119 37.4287 41.7958C37.4671 41.7632 37.5044 41.7367 37.5381 41.7154C37.575 41.691 37.6139 41.6776 37.646 41.6656C37.6864 41.6488 37.73 41.6412 37.7737 41.6433C37.8147 41.648 37.8515 41.6661 37.879 41.6874C37.9111 41.7118 37.9169 41.7554 37.935 41.7855C37.9661 41.8389 37.9744 41.8213 37.9729 41.8763C37.9584 41.9131 37.9423 41.9458 37.9278 41.9831C37.9153 42.02 37.9272 42.0661 37.9132 42.103C37.9003 42.1393 37.8587 42.1668 37.8463 42.2031C37.8287 42.2519 37.8432 42.3126 37.8266 42.3613C37.8095 42.4101 37.7524 42.4454 37.7358 42.4941C37.7192 42.5424 37.7462 42.6052 37.7306 42.6539C37.7145 42.7027 37.687 42.7468 37.6715 42.7961C37.6564 42.8443 37.6294 42.8895 37.6149 42.9372C37.6004 42.9859 37.603 43.0389 37.589 43.0871C37.5745 43.1354 37.5553 43.1826 37.5413 43.2298C37.5283 43.278 37.5101 43.3252 37.4977 43.3724C37.4857 43.4212 37.4816 43.4705 37.4691 43.5187C37.4572 43.567 37.4582 43.6173 37.4463 43.665C37.4354 43.7133 37.3991 43.7553 37.3877 43.8015C37.3768 43.8492 37.3732 43.8985 37.3623 43.9457C37.3519 43.9929 37.3441 44.0412 37.3353 44.0884C37.3254 44.1356 37.3197 44.1838 37.3104 44.2305C37.3011 44.2777 37.2793 44.3213 37.2699 44.369C37.2616 44.4157 37.2487 44.4619 37.2409 44.5086C37.2331 44.5553 37.2227 44.6015 37.2149 44.6482C37.2072 44.6948 37.2253 44.7452 37.2186 44.7908C37.2118 44.837 37.2217 44.8852 37.2149 44.9314C37.2092 44.9781 37.1828 45.0212 37.1776 45.0668C37.1719 45.113 37.1776 45.1597 37.1729 45.2053C37.1688 45.2515 37.1449 45.2956 37.1407 45.3413C37.1361 45.3869 37.1148 45.4305 37.1112 45.4751C37.1081 45.5208 37.1387 45.569 37.1356 45.6141C37.133 45.6588 37.0987 45.7023 37.0961 45.747C37.0941 45.7911 37.1122 45.8372 37.1101 45.8818C37.1091 45.9265 37.093 45.97 37.092 46.0141C37.0904 46.0587 37.0889 46.1028 37.0889 46.1469C37.0889 46.1916 37.1164 46.2357 37.1169 46.2792C37.1174 46.3233 37.0889 46.3669 37.0904 46.411C37.0915 46.4541 37.0858 46.4976 37.0878 46.5407C37.0889 46.5848 37.1273 46.6263 37.1293 46.6688C37.1309 46.7124 37.1226 46.7555 37.1257 46.798C37.1293 46.8411 37.1366 46.8831 37.1413 46.9251C37.1449 46.9682 37.147 47.0112 37.1511 47.0528C37.1563 47.0953 37.149 47.1389 37.1537 47.1804C37.1589 47.2224 37.1693 47.2634 37.1745 47.3044C37.1802 47.3469 37.1911 47.3874 37.1973 47.4284C37.2035 47.4704 37.2072 47.5114 37.2149 47.5523C37.2222 47.5928 37.2331 47.6338 37.2409 47.6732L37.2637 47.7946C37.2725 47.8356 37.2684 47.8787 37.2772 47.9181C37.286 47.9586 37.3026 47.9964 37.3114 48.0359C37.3213 48.0763 37.3426 48.1121 37.3534 48.151C37.3638 48.1905 37.3809 48.2278 37.3924 48.2667C37.4038 48.3062 37.4095 48.3456 37.4219 48.384C37.4328 48.4234 37.4603 48.4561 37.4723 48.4945C37.4847 48.5329 37.4842 48.5749 37.4966 48.6128C37.5096 48.6501 37.5096 48.6921 37.5226 48.7295C37.5361 48.7674 37.5288 48.813 37.5433 48.8493C37.5573 48.8867 37.6123 48.9074 37.6269 48.9448C37.6419 48.9811 37.6549 49.0179 37.6704 49.0542C37.686 49.09 37.6959 49.129 37.7109 49.1647C37.727 49.2005 37.7259 49.2441 37.7425 49.2794C37.7586 49.3157 37.7778 49.3494 37.7955 49.3842C37.8126 49.419 37.851 49.4439 37.8686 49.4786C37.8862 49.5134 37.8987 49.5502 37.9163 49.585C37.935 49.6192 37.9433 49.6592 37.962 49.6918C37.9817 49.7261 38.0123 49.7531 38.031 49.7863L38.0896 49.8864C38.1093 49.9191 38.0979 49.972 38.1187 50.0042C38.1394 50.0368 38.1929 50.0488 38.2136 50.0804C38.2338 50.1126 38.2328 50.1593 38.2541 50.1909C38.2759 50.2231 38.3013 50.2511 38.3231 50.2827C38.3449 50.3144 38.3791 50.3367 38.4009 50.3678C38.4237 50.3984 38.4367 50.4368 38.4595 50.4664C38.4823 50.4965 38.5244 50.5126 38.5477 50.5416C38.5716 50.5722 38.5685 50.6226 38.5923 50.6521C38.6157 50.6817 38.638 50.7133 38.6613 50.7424C38.6862 50.7709 38.7225 50.7896 38.7474 50.8181C38.7666 50.8389 38.7879 50.8576 38.8061 50.8794C38.8253 50.9001 38.8336 50.9312 38.8517 50.952C38.8709 50.9727 38.9005 50.9836 38.9192 51.0039C38.9389 51.0246 38.9669 51.036 38.9871 51.0568C39.0131 51.0838 39.0286 51.1206 39.054 51.147C39.0738 51.1673 39.0847 51.1953 39.1049 51.215C39.1246 51.2347 39.1708 51.2269 39.191 51.2467C39.2107 51.2664 39.2143 51.3016 39.2341 51.3208C39.2553 51.34 39.2792 51.3546 39.2994 51.3732C39.3259 51.3987 39.3503 51.4267 39.3767 51.4505L39.4395 51.5035C39.4613 51.5216 39.4623 51.561 39.4831 51.5792C39.5044 51.5968 39.5479 51.587 39.5682 51.6051C39.5967 51.6274 39.6257 51.6477 39.6543 51.6695C39.6756 51.6866 39.6865 51.7167 39.7067 51.7328C39.728 51.7494 39.7518 51.7623 39.7721 51.7784C39.7933 51.795 39.8068 51.8199 39.8276 51.836C39.8561 51.8562 39.8888 51.8702 39.9168 51.89C39.9381 51.905 39.9682 51.9071 39.9889 51.9221C40.0097 51.9372 40.0221 51.9636 40.0429 51.9771C40.0704 51.9963 40.1056 52.0036 40.1326 52.0222C40.1528 52.0352 40.1668 52.0586 40.1871 52.0721C40.2084 52.085 40.2327 52.0902 40.253 52.1037C40.2794 52.1208 40.296 52.1535 40.3204 52.1685C40.3412 52.1805 40.3733 52.1706 40.3915 52.1815C40.4107 52.1929 40.4237 52.2132 40.4408 52.2241C40.4584 52.2355 40.476 52.249 40.4927 52.2583C40.4947 52.2588 40.4927 52.2583 40.4927 52.2583V52.2583Z" fill="#F6D43C"/>
<path fill-rule="evenodd" clip-rule="evenodd" d="M48.952 57.5759C48.909 57.5723 48.8644 57.5909 48.8374 57.5723C48.8099 57.5526 48.7938 57.5152 48.7824 57.4841C48.7725 57.4576 48.7819 57.426 48.7824 57.3943C48.7834 57.3466 48.7819 57.288 48.8151 57.2542C48.8161 57.2522 48.8203 57.2568 48.8223 57.2553C48.867 57.2086 48.8654 57.2076 48.91 57.1598C48.952 57.1168 48.9743 57.1375 49.0158 57.0945C49.0599 57.0478 49.0579 57.0457 49.1025 56.999C49.144 56.9554 49.1295 56.943 49.171 56.8989C49.2151 56.8522 49.228 56.8652 49.2721 56.8185C49.3136 56.7749 49.323 56.7837 49.364 56.7406C49.4096 56.6929 49.393 56.6779 49.4376 56.6307C49.4796 56.586 49.4688 56.5757 49.5108 56.5311C49.5575 56.4813 49.559 56.4833 49.6057 56.434C49.6508 56.3863 49.656 56.3915 49.7001 56.3443C49.7427 56.2986 49.7613 56.3163 49.8039 56.2717C49.8444 56.2286 49.8215 56.2058 49.8615 56.1632C49.8999 56.1222 49.918 56.1383 49.9564 56.0973C49.9932 56.059 49.9725 56.0387 50.0093 55.9993C50.0446 55.9625 50.0648 55.9811 50.1012 55.9443C50.1323 55.9111 50.1235 55.9028 50.1536 55.8686C50.1925 55.8265 50.1977 55.8478 50.2521 55.8105C50.2718 55.797 50.2781 55.7544 50.304 55.7415C50.3543 55.7145 50.3471 55.7202 50.4233 55.7181C50.4415 55.7181 50.4638 55.7238 50.4882 55.7269C50.5224 55.7306 50.5603 55.7606 50.6059 55.7648C50.6412 55.7689 50.6812 55.7606 50.7227 55.7648C50.7621 55.7684 50.8026 55.7809 50.8461 55.7856C50.8845 55.7887 50.925 55.7767 50.9686 55.7804C51.007 55.783 51.0454 55.7939 51.0879 55.7975C51.1252 55.8001 51.1657 55.8063 51.2067 55.8089C51.2461 55.8115 51.2876 55.8219 51.3312 55.825C51.3696 55.8265 51.4101 55.8307 51.4516 55.8333C51.492 55.8348 51.5356 55.8224 51.5782 55.825C51.6165 55.8265 51.657 55.8213 51.697 55.8229C51.7374 55.825 51.78 55.8203 51.8215 55.8219C51.8619 55.8229 51.9045 55.8333 51.947 55.8343C51.9864 55.8359 52.0248 55.8354 52.0658 55.8369C52.1063 55.8379 52.1457 55.867 52.1862 55.868C52.2266 55.8691 52.2681 55.8587 52.3107 55.8592H52.4362C52.4788 55.8592 52.5224 55.8499 52.5659 55.8499C52.6043 55.8504 52.6438 55.8255 52.6837 55.8255C52.7236 55.8255 52.7626 55.852 52.803 55.852C52.8435 55.852 52.8839 55.8359 52.9244 55.8348C52.9649 55.8343 53.0064 55.8379 53.0479 55.8379C53.0894 55.8369 53.1309 55.8317 53.1724 55.8307C53.2149 55.8296 53.2564 55.8328 53.3 55.8312C53.3426 55.8302 53.3841 55.8369 53.4276 55.8348C53.4712 55.8338 53.5138 55.8079 53.5573 55.8063C53.5957 55.8053 53.6362 55.8473 53.6761 55.8457C53.7156 55.8447 53.754 55.8328 53.7929 55.8307C53.8333 55.8286 53.8728 55.8296 53.9122 55.8271C53.9527 55.8255 53.9931 55.8395 54.0336 55.8379C54.073 55.8354 54.1114 55.784 54.1524 55.7814C54.1929 55.7798 54.2354 55.8037 54.2759 55.8011C54.3163 55.799 54.3578 55.8027 54.3993 55.8001C54.4408 55.7975 54.4813 55.7876 54.5238 55.7845C54.5643 55.7814 54.6079 55.7907 54.6494 55.7871C54.6909 55.784 54.7314 55.7586 54.7739 55.7555C54.8154 55.7518 54.8569 55.7378 54.8994 55.7347C54.942 55.7311 54.9845 55.7254 55.0271 55.7217C55.0696 55.7181 55.1132 55.7166 55.1557 55.7129C55.1983 55.7083 55.2439 55.7306 55.2875 55.7259C55.3259 55.7217 55.3627 55.7025 55.4011 55.6989C55.4385 55.6948 55.4753 55.6797 55.5137 55.675C55.5521 55.6714 55.5905 55.6688 55.6294 55.6647C55.6678 55.66 55.7051 55.6481 55.744 55.6429C55.7824 55.6382 55.8239 55.6522 55.8628 55.6476C55.9012 55.6424 55.9407 55.6408 55.9796 55.6356C56.019 55.6315 56.0564 55.6216 56.0963 55.6159C56.1357 55.6107 56.1752 55.604 56.2141 55.5988C56.2535 55.5936 56.295 55.6045 56.3344 55.5988C56.3739 55.5926 56.4133 55.5822 56.4522 55.576C56.4916 55.5703 56.5342 55.5822 56.5736 55.576C56.6141 55.5692 56.6478 55.5277 56.6882 55.522C56.7277 55.5153 56.7702 55.5267 56.8107 55.5194C56.8501 55.5127 56.8875 55.4909 56.9274 55.4852C56.9679 55.4774 57.0052 55.4535 57.0462 55.4473C57.0867 55.44 57.1292 55.4452 57.1686 55.438C57.2091 55.4307 57.2527 55.4421 57.2931 55.4343C57.3346 55.4271 57.3741 55.4146 57.4135 55.4068C57.455 55.3991 57.4955 55.3887 57.5359 55.3814C57.5764 55.3731 57.6189 55.3716 57.6594 55.3638C57.6999 55.356 57.7372 55.3316 57.7787 55.3233C57.8182 55.3145 57.8607 55.3119 57.9012 55.3026C57.9427 55.2943 57.9852 55.2906 58.0257 55.2818C58.0661 55.2725 58.1025 55.2393 58.1434 55.2304C58.1849 55.2206 58.2337 55.2455 58.2742 55.2367C58.3167 55.2268 58.3582 55.2216 58.3997 55.2123C58.4412 55.2024 58.4807 55.1848 58.5222 55.1749C58.5626 55.1656 58.6083 55.1713 58.6498 55.162C58.6913 55.1511 58.7286 55.122 58.7701 55.1111C58.8106 55.1013 58.85 55.0821 58.8926 55.0722C58.9279 55.0624 58.9704 55.0805 59.0072 55.0712L59.1136 55.0432C59.1489 55.0333 59.1784 54.998 59.2137 54.9887C59.249 54.9794 59.2895 54.983 59.3252 54.9742C59.3605 54.9643 59.3901 54.9295 59.4254 54.9202C59.4607 54.9098 59.5022 54.9202 59.539 54.9093C59.5743 54.8989 59.607 54.8756 59.6433 54.8652C59.6785 54.8548 59.7175 54.8559 59.7538 54.8455C59.789 54.8346 59.8306 54.8434 59.8674 54.8336C59.9027 54.8227 59.9281 54.7739 59.9639 54.7625C60.0002 54.7516 60.0438 54.7651 60.0796 54.7542C60.1148 54.7428 60.1455 54.7137 60.1818 54.7013C60.2181 54.6904 60.2508 54.6707 60.2871 54.6593C60.3224 54.6484 60.368 54.665 60.4049 54.6541L60.5122 54.6162C60.5475 54.6048 60.588 54.6053 60.6248 54.5939C60.6611 54.5814 60.6938 54.5581 60.7291 54.5456C60.7654 54.5332 60.8012 54.5181 60.8365 54.5062C60.8728 54.4938 60.9065 54.474 60.9428 54.4611C60.9781 54.4481 61.0181 54.4434 61.0533 54.4294C61.0886 54.4175 61.1213 54.3916 61.1566 54.3786C61.1929 54.3651 61.2318 54.3589 61.2681 54.3454C61.3034 54.3324 61.334 54.3049 61.3703 54.2914C61.4056 54.2779 61.4461 54.2754 61.4829 54.2613L61.5903 54.2188C61.6256 54.2053 61.6572 54.1768 61.6925 54.1633C61.7288 54.1493 61.7703 54.1493 61.8071 54.1348C61.8424 54.1208 61.886 54.1265 61.9228 54.1114C61.9591 54.0974 61.9887 54.0668 62.025 54.0523C62.0603 54.0377 62.0961 54.0211 62.1314 54.0061C62.1667 53.9916 62.1962 53.9604 62.2326 53.9454C62.2689 53.9304 62.3114 53.9319 62.3472 53.9158C62.3835 53.9013 62.41 53.8645 62.4453 53.8489C62.4816 53.8333 62.5262 53.838 62.563 53.8225C62.5983 53.8064 62.6351 53.7929 62.6704 53.7778C62.7067 53.7612 62.7446 53.7477 62.7799 53.7317C62.8152 53.7151 62.8541 53.7042 62.8904 53.6876C62.9257 53.6715 62.9563 53.6435 62.9915 53.6269C63.0268 53.6097 63.0574 53.5802 63.0917 53.5641C63.128 53.547 63.1648 53.5319 63.2001 53.5153C63.2354 53.4982 63.281 53.5029 63.3179 53.4847C63.3531 53.4676 63.3827 53.4385 63.419 53.4209C63.4533 53.4033 63.4911 53.3877 63.5264 53.3695C63.5617 53.3514 63.6073 53.3555 63.6431 53.3374C63.6774 53.3192 63.6919 53.2575 63.7272 53.2393C63.7568 53.2243 63.791 53.2181 63.8206 53.203C63.8501 53.188 63.8724 53.16 63.9015 53.1444C63.9306 53.1288 63.9736 53.1371 64.0027 53.1216C64.0317 53.106 64.0665 53.0987 64.096 53.0832C64.1246 53.0676 64.1448 53.0349 64.1739 53.0188C64.2029 53.0028 64.2429 53.0069 64.273 52.9898C64.3015 52.9742 64.3326 52.9618 64.3622 52.9457C64.3918 52.9286 64.4027 52.8819 64.4322 52.8653C64.4618 52.8487 64.4981 52.845 64.5266 52.829C64.5562 52.8124 64.5894 52.8025 64.619 52.7859C64.6486 52.7693 64.6646 52.7314 64.6932 52.7138C64.7227 52.6967 64.7632 52.6993 64.7912 52.6816C64.8208 52.665 64.8421 52.6344 64.8701 52.6173C64.8997 52.6002 64.9339 52.5924 64.9635 52.5748C64.992 52.5576 65.0231 52.5442 65.0517 52.527C65.0812 52.5094 65.1175 52.5037 65.1461 52.4855C65.1746 52.4679 65.1855 52.4207 65.214 52.403C65.2332 52.3911 65.2524 52.3693 65.2706 52.3569C65.3271 52.3403 65.3292 52.3646 65.3961 52.3652C65.4304 52.3657 65.4714 52.3724 65.5098 52.3807C65.5471 52.3896 65.599 52.3776 65.6291 52.3973C65.6612 52.4186 65.6867 52.4684 65.7001 52.5089C65.7105 52.5395 65.7121 52.5841 65.7064 52.6277C65.7022 52.6598 65.683 52.6951 65.669 52.7356C65.6597 52.76 65.6306 52.7745 65.6171 52.8015C65.585 52.8508 65.5969 52.8342 65.544 52.8912C65.5217 52.9156 65.4973 52.9467 65.4651 52.981C65.4387 53.0064 65.4205 53.0437 65.3894 53.0754C65.3629 53.1024 65.3256 53.1216 65.2939 53.1511C65.2664 53.1776 65.2483 53.2155 65.2172 53.245C65.1886 53.272 65.1471 53.2876 65.115 53.3171C65.0854 53.3441 65.0724 53.3908 65.0408 53.4194C65.0102 53.4463 64.9546 53.4453 64.923 53.4728C64.8934 53.4987 64.8836 53.548 64.8509 53.5739C64.8224 53.5989 64.7767 53.6061 64.7476 53.6315C64.717 53.657 64.688 53.6855 64.6563 53.7109C64.6247 53.7363 64.5946 53.7659 64.5619 53.7924C64.5313 53.8178 64.5152 53.8608 64.4841 53.8857C64.453 53.9106 64.413 53.9262 64.3809 53.9516C64.3487 53.9765 64.3041 53.9879 64.2704 54.0128C64.2398 54.0367 64.2174 54.0725 64.1874 54.0969C64.1552 54.1208 64.1277 54.1508 64.095 54.1742C64.0623 54.1975 64.0333 54.2271 63.9996 54.2505C63.9674 54.2754 63.9238 54.2842 63.888 54.3086C63.8542 54.3339 63.8198 54.3585 63.7848 54.3822C63.7531 54.405 63.7272 54.4351 63.6945 54.4574C63.6618 54.4798 63.6276 54.499 63.5944 54.5213C63.5622 54.5436 63.5415 54.5851 63.5072 54.6079C63.4751 54.6302 63.4221 54.6255 63.3879 54.6484C63.3547 54.6707 63.3147 54.6852 63.2795 54.7075C63.2452 54.7298 63.2125 54.7568 63.1773 54.7791C63.142 54.8019 63.1062 54.8242 63.0699 54.8465C63.0346 54.8694 63.003 54.9005 62.9656 54.9223C62.9334 54.942 62.8987 54.9591 62.8644 54.9794C62.8312 54.9991 62.7965 55.0162 62.7622 55.0364C62.729 55.0567 62.6932 55.0748 62.659 55.0945C62.6248 55.1158 62.5993 55.15 62.5646 55.1703C62.5293 55.19 62.4997 55.2195 62.4655 55.2393C62.4292 55.26 62.3835 55.2616 62.3477 55.2808C62.3124 55.3005 62.2839 55.3347 62.2476 55.355C62.2123 55.3747 62.1625 55.371 62.1262 55.3908C62.0899 55.4099 62.0562 55.4348 62.0188 55.4546C61.9825 55.4738 61.9348 55.4753 61.8974 55.4945C61.8601 55.5137 61.8243 55.5355 61.7869 55.5552C61.7496 55.5744 61.7148 55.6029 61.6774 55.6221C61.6391 55.6413 61.6084 55.6761 61.569 55.6948C61.5358 55.7119 61.5031 55.7342 61.4679 55.7508C61.4347 55.7669 61.3978 55.783 61.3636 55.7996C61.3283 55.8162 61.2884 55.8229 61.2531 55.839C61.2178 55.8561 61.1903 55.8898 61.155 55.9059C61.1197 55.922 61.0793 55.9293 61.0435 55.9459C61.0072 55.9619 60.9755 55.9889 60.9392 56.005C60.9029 56.0206 60.8562 56.0128 60.8199 56.0283C60.7836 56.0444 60.7561 56.0833 60.7198 56.0999C60.6834 56.1155 60.643 56.1233 60.6051 56.1388C60.5678 56.1539 60.5294 56.1663 60.4915 56.1814C60.4536 56.1964 60.4074 56.1923 60.3701 56.2078L60.2575 56.2556C60.2202 56.2711 60.1906 56.3106 60.1532 56.3256C60.1148 56.3407 60.0692 56.337 60.0308 56.3526C59.9924 56.3671 59.9608 56.4039 59.9224 56.419C59.884 56.4325 59.8425 56.4413 59.8031 56.4558C59.7647 56.4704 59.7128 56.4522 59.6734 56.4667C59.6339 56.4813 59.6085 56.5336 59.5691 56.5477C59.5297 56.5617 59.4809 56.5497 59.4404 56.5632C59.4 56.5772 59.3636 56.6021 59.3237 56.6156C59.2832 56.6296 59.2469 56.654 59.2059 56.6691C59.1655 56.6815 59.1229 56.6893 59.0825 56.7017C59.0461 56.7137 59.0057 56.7121 58.9709 56.7235C58.9346 56.7349 58.9071 56.7728 58.8718 56.7837C58.8355 56.7951 58.7878 56.7713 58.7515 56.7821C58.7152 56.793 58.6804 56.8096 58.6441 56.8205C58.6088 56.8309 58.572 56.8434 58.5346 56.8537C58.4983 56.8646 58.4615 56.8776 58.4251 56.888C58.3899 56.8989 58.3582 56.9336 58.3219 56.944C58.2856 56.9544 58.2399 56.9362 58.2026 56.9476L58.091 56.9772C58.0537 56.9876 58.0189 57.0109 57.9816 57.0213C57.9442 57.0317 57.9136 57.0659 57.8742 57.0753C57.8379 57.0856 57.7922 57.0659 57.7538 57.0753C57.7165 57.0856 57.6781 57.0924 57.6402 57.1017C57.6018 57.1116 57.5624 57.1142 57.5235 57.124C57.4851 57.1334 57.4535 57.1718 57.4151 57.1806C57.3767 57.1894 57.3279 57.1531 57.2885 57.1619L57.1728 57.1899C57.1344 57.1987 57.1048 57.2517 57.0664 57.2605L56.9487 57.2854C56.9092 57.2937 56.8636 57.2719 56.8242 57.2797C56.7858 57.288 56.75 57.3186 56.7105 57.3264C56.6711 57.3347 56.6286 57.3274 56.5892 57.3357C56.5497 57.343 56.5072 57.3373 56.4678 57.344C56.4273 57.3518 56.392 57.3834 56.351 57.3907C56.3116 57.3985 56.2701 57.3964 56.2307 57.4031C56.1902 57.4099 56.1539 57.4358 56.1129 57.4431C56.0724 57.4493 56.0299 57.442 55.9884 57.4493C55.9479 57.4561 55.9085 57.4644 55.867 57.4711C55.8276 57.4778 55.7819 57.4555 55.7414 57.4612C55.6999 57.468 55.6616 57.4846 55.62 57.4908C55.5796 57.4965 55.5402 57.5147 55.4987 57.5204C55.4582 57.5266 55.4125 57.5038 55.371 57.509C55.3306 57.5152 55.2911 57.5375 55.2507 57.5432C55.2092 57.5489 55.1666 57.5458 55.1251 57.551C55.0836 57.5562 55.0473 57.6029 55.0058 57.6075C54.9643 57.6122 54.9197 57.6013 54.8782 57.6065C54.8429 57.6101 54.805 57.6018 54.7687 57.606C54.7324 57.6096 54.6997 57.6439 54.6644 57.648C54.6281 57.6522 54.5902 57.6371 54.5539 57.6397C54.5166 57.6439 54.4797 57.634 54.4434 57.6366C54.4082 57.6407 54.3724 57.6682 54.3371 57.6714C54.3008 57.675 54.2619 57.6563 54.2255 57.6594C54.1892 57.6631 54.1514 57.662 54.1161 57.6656C54.0787 57.6682 54.0429 57.6802 54.0066 57.6828C53.9703 57.6859 53.9335 57.7014 53.8961 57.7046C53.8608 57.7071 53.8209 57.6833 53.7846 57.6859C53.7472 57.6885 53.7093 57.6848 53.673 57.6874C53.6367 57.69 53.6009 57.7248 53.5636 57.7269C53.5272 57.7295 53.4883 57.7004 53.4499 57.702C53.4126 57.7046 53.3768 57.7206 53.3394 57.7227C53.3031 57.7248 53.2642 57.7134 53.2269 57.7149C53.1895 57.717 53.1537 57.757 53.1164 57.758C53.079 57.7601 53.0411 57.7678 53.0038 57.7689C52.9664 57.7699 52.927 57.7383 52.8891 57.7398C52.8513 57.7414 52.8134 57.7232 52.7755 57.7243C52.7371 57.7258 52.7003 57.7424 52.6619 57.7429C52.6246 57.744 52.5867 57.7544 52.5493 57.7559C52.5109 57.7564 52.4725 57.7274 52.4336 57.7279C52.3963 57.7284 52.3584 57.7611 52.32 57.7611C52.2816 57.7621 52.2443 57.7461 52.2054 57.7461C52.1665 57.7461 52.1296 57.7611 52.0907 57.7611C52.0518 57.7611 52.0139 57.757 51.9761 57.757C51.9377 57.7564 51.8982 57.7461 51.8593 57.7461C51.822 57.7455 51.7826 57.7585 51.7447 57.7585C51.7053 57.758 51.6669 57.7471 51.629 57.7461C51.5896 57.7461 51.5512 57.7585 51.5123 57.757C51.4739 57.757 51.4344 57.7642 51.3955 57.7632C51.3571 57.7632 51.3177 57.7507 51.2788 57.7492C51.2399 57.7476 51.2 57.7611 51.161 57.7601C51.1221 57.759 51.0843 57.7461 51.0443 57.745C51.0059 57.7435 50.9675 57.7352 50.9266 57.7341C50.8882 57.7326 50.8487 57.7336 50.8088 57.7315C50.7756 57.73 50.7429 57.7372 50.7107 57.7367C50.6786 57.7346 50.6459 57.7186 50.6132 57.7175C50.581 57.7154 50.5463 57.7295 50.5141 57.7279C50.4809 57.7258 50.4493 57.7087 50.4161 57.7066C50.3829 57.7051 50.3502 57.716 50.3165 57.7139C50.2838 57.7118 50.2495 57.7284 50.2168 57.7258C50.1842 57.7243 50.152 57.6973 50.1193 57.6942C50.0866 57.6921 50.0555 57.6646 50.0223 57.662C49.9891 57.6594 49.9559 57.6667 49.9217 57.6641C49.889 57.6615 49.8552 57.6734 49.8215 57.6708C49.7888 57.6682 49.7546 57.6703 49.7219 57.6667C49.6887 57.6641 49.6534 57.6833 49.6202 57.6797C49.587 57.6771 49.5564 57.6356 49.5237 57.633C49.49 57.6299 49.4553 57.6439 49.4215 57.6407C49.3883 57.6376 49.3536 57.6501 49.3199 57.6465C49.2872 57.6428 49.256 57.6107 49.2223 57.607C49.1891 57.6039 49.1513 57.6361 49.1181 57.6335C49.0843 57.6293 49.0516 57.62 49.0184 57.6164C48.9941 57.6179 48.9754 57.579 48.952 57.5759V57.5759Z" fill="#CC2131"/>
<path fill-rule="evenodd" clip-rule="evenodd" d="M55.9868 38.4247L55.9879 38.4242L56.7183 37.6896L59.2604 35.5403C59.7102 35.1797 60.3722 34.8217 60.38 34.8176L60.5159 34.7564L61.4632 34.3045C62.0883 33.9943 62.7954 33.6431 63.2193 33.4516L63.9549 33.0983C65.7525 32.2376 67.6015 31.3526 69.1662 29.9949C69.9008 29.3547 70.3355 28.618 70.7532 27.9057L70.8798 27.6915C70.8829 27.6863 70.9 27.6453 70.9 27.6453L70.9923 27.4451C71.0836 27.2531 71.1827 27.0446 71.2424 26.8168L71.5563 25.6091C71.5895 25.4596 71.6138 25.2838 71.5018 25.2205C71.3742 25.1499 71.1915 25.3092 71.1189 25.3818C71.1272 25.3746 70.1654 26.0905 70.1654 26.0905C69.9335 26.2638 69.3317 26.6249 68.7335 26.9501L67.2399 27.7963L65.4392 28.617C64.7077 28.9459 64.0763 29.2302 63.2629 29.6235L62.301 30.0883C60.9574 30.6512 58.1782 32.1541 57.2957 33.8065C57.2532 33.8817 56.2094 35.7042 55.922 36.3148C55.434 37.2006 54.9894 38.1095 54.5897 39.0385C54.5794 39.0594 54.5736 39.0823 54.5727 39.1056C54.5718 39.129 54.5758 39.1522 54.5845 39.1739C54.5975 39.2071 54.6302 39.2512 54.7049 39.2756L54.9503 39.329C54.9835 39.3394 55.0504 39.3363 55.1064 39.2865C55.1106 39.2833 55.9868 38.4247 55.9868 38.4247V38.4247Z" fill="white"/>
</svg>
