<svg width="100" height="100" viewBox="0 0 100 100" fill="none" xmlns="http://www.w3.org/2000/svg">
<path fill-rule="evenodd" clip-rule="evenodd" d="M0 0H100V100H0V0Z" fill="white"/>
<path fill-rule="evenodd" clip-rule="evenodd" d="M61.5374 26.0308C61.6245 26.8101 61.7978 27.8061 61.9275 28.2388L68.3346 33.5642V34.3004L62.1433 29.1913C62.1433 29.1913 62.577 31.0097 63.0533 32.1354L68.4653 36.638V37.3306L63.3998 33.1746C63.9622 34.7761 64.5246 35.6425 64.8286 36.0321L68.595 39.1926V39.8851L65.5207 37.3742C66.0405 38.6727 67.5554 41.0109 69.7208 42.7857C70.5 42.5263 70.9763 42.2664 71.7119 42.0931L72.1882 42.4827C70.5 42.959 67.8158 44.4308 66.6029 45.5566C66.2573 45.8595 66.4296 46.0328 66.8633 45.9892C67.296 45.9462 70.3267 46.1625 71.6683 47.115C72.0149 47.3313 72.0585 47.1581 72.2317 46.8987C72.6208 46.1625 73.4001 44.9506 74.5694 44.7338C74.8724 46.0759 75.912 47.2883 76.5616 47.721C76.7338 46.9853 77.2536 46.4655 77.6002 46.6388C77.9467 46.8115 77.7299 47.2011 77.5141 47.4175C77.2972 47.6343 77.0803 47.9803 77.3833 48.1536C77.6863 48.3269 77.9467 48.2403 78.2061 47.8506C78.4666 47.461 79.3755 46.9848 79.5488 47.5477C80.025 47.5477 80.4577 46.6388 79.7646 46.6388C79.0725 46.6388 78.8557 46.5952 78.5091 46.7254C78.4666 46.4224 78.423 46.3358 78.2933 46.1625C78.7695 46.0328 78.9853 46.0759 78.9853 46.0759C78.8556 45.5566 78.5091 45.3833 78.1636 45.2536C77.817 45.1239 77.7735 44.7343 77.7299 44.4313C77.6863 44.1283 77.6002 43.7823 77.6002 43.7823C78.3358 43.4357 80.3705 43.6526 81.475 44.5828C81.9949 44.3664 82.3627 43.912 81.626 43.2625C81.626 43.0456 81.5835 42.4832 81.2369 42.1803C80.8904 41.8773 78.423 39.7554 77.8596 39.6257L61.5374 26.0308V26.0308ZM77.2967 38.4128C77.2095 37.2876 77.3403 32.828 77.9898 31.4429L70.1099 24.9051C70.0673 25.3377 70.1535 26.6804 70.2406 27.0264L74.6566 30.6631V31.3993L70.4129 27.9358C70.7158 29.4512 70.7158 29.7973 70.9327 30.3601L74.7863 33.6067V34.3865L71.2357 31.3557C71.4961 32.4379 71.8852 33.8666 72.1446 34.1266L77.2967 38.4128V38.4128Z" fill="black"/>
<path fill-rule="evenodd" clip-rule="evenodd" d="M78.314 40.4693L80.7165 42.3743C80.8898 42.504 80.8473 42.7852 80.6517 42.7639C80.508 42.7478 80.536 43.0399 80.8473 43.1753C81.3448 43.3917 81.4958 43.7164 81.3884 43.9763C80.5656 43.4352 79.1145 42.8936 77.7081 43.2184C77.6645 43.002 77.6645 42.9154 77.6645 42.7639C77.6645 42.656 77.5561 42.4609 77.4264 42.4827C76.8417 42.5258 77.0829 42.2259 77.2754 42.0931C77.5561 41.8986 77.7589 41.773 77.4487 41.5956C76.9937 41.3357 76.9501 41.0758 77.2967 41.0545C77.6432 41.0332 77.8591 41.0976 77.8378 40.7733L77.7729 40.4921C77.7294 40.3178 77.9026 40.2094 78.314 40.4693V40.4693Z" fill="white"/>
<path fill-rule="evenodd" clip-rule="evenodd" d="M26.2316 50.3834V50.9032C27.0108 50.9032 28.093 51.6824 28.093 52.8943V69.5626C28.093 70.7744 27.0108 71.2082 26.2316 71.2082V71.7269H32.812V71.2082C32.1629 71.2082 31.4698 70.6022 31.4698 69.4764V50.3834H26.2316ZM38.6572 53.328C39.5661 51.9418 40.7349 51.726 41.3414 51.726C41.9479 51.726 43.1598 51.8557 43.1598 53.5874V69.6061C43.1598 70.6022 42.4672 71.2082 41.8176 71.2082V71.7269H48.3985V71.2082C47.6193 71.2082 46.5371 70.7744 46.5371 69.5626V53.4142C46.5371 50.3834 43.7232 49.8636 42.3375 49.9071C41.2568 49.9403 40.0439 50.291 39.2341 50.9987C38.9612 51.2062 38.6582 51.2062 38.6582 50.9893V50.3834H33.4189V50.9032C34.1982 50.9032 35.2804 51.6824 35.2804 52.8943V69.5626C35.2804 70.7744 34.1982 71.2082 33.4189 71.2082V71.7269H39.9993V71.2082C39.3503 71.2082 38.6577 70.6022 38.6577 69.6061V53.328H38.6572V53.328ZM73.4654 49.7608C69.8806 49.7608 66.9743 54.75 66.9743 60.9045C66.9743 67.0578 69.8806 72.0476 73.4654 72.0476C77.0492 72.0476 79.9555 67.0584 79.9555 60.9045C79.9555 54.7495 77.0497 49.7608 73.4654 49.7608ZM73.4654 50.4949C75.3268 50.4949 76.1585 55.1547 76.1585 60.9039C76.1585 66.6521 75.3263 71.3119 73.4654 71.3119C71.603 71.3119 70.7713 66.6521 70.7713 60.9039C70.7713 55.1547 71.6035 50.4949 73.4654 50.4949V50.4949ZM29.5654 47.9451C30.1013 47.9451 30.6153 47.7322 30.9942 47.3532C31.3732 46.9743 31.5861 46.4603 31.5861 45.9244C31.5861 45.3885 31.3732 44.8745 30.9942 44.4955C30.6153 44.1166 30.1013 43.9037 29.5654 43.9037C29.0294 43.9037 28.5155 44.1166 28.1365 44.4955C27.7576 44.8745 27.5447 45.3885 27.5447 45.9244C27.5447 46.4603 27.7576 46.9743 28.1365 47.3532C28.5155 47.7322 29.0294 47.9451 29.5654 47.9451V47.9451ZM85.8479 53.328C86.7568 51.9418 87.9252 51.726 88.5321 51.726C89.1381 51.726 90.35 51.8557 90.35 53.5874V69.6061C90.35 70.6022 89.6579 71.2082 89.0074 71.2082V71.7269H95.5887V71.2082C94.8095 71.2082 93.7273 70.7744 93.7273 69.5626V53.4142C93.7273 50.3834 90.9134 49.8636 89.5272 49.9071C88.446 49.9403 87.2331 50.291 86.4238 50.9987C86.1514 51.2062 85.8484 51.2062 85.8484 50.9893V50.3834H80.6097V50.9032C81.3889 50.9032 82.4711 51.6824 82.4711 52.8943V69.5626C82.4711 70.7744 81.3889 71.2082 80.6097 71.2082V71.7269H87.19V71.2082C86.5405 71.2082 85.8484 70.6022 85.8484 69.6061V53.328H85.8479V53.328Z" fill="black"/>
<path fill-rule="evenodd" clip-rule="evenodd" d="M63.5944 44.106C63.5295 45.3615 63.8974 49.7339 59.0913 50.3834V51.1626H61.1696V69.3457C61.1696 70.6883 62.2953 73.1132 67.9668 71.4027V70.4715C66.7984 70.9477 64.5469 70.9052 64.5469 69.2596V51.1626H67.9668V50.3834H64.5469V44.106H63.5944V44.106ZM4.4118 41.7248V42.2441C5.23409 42.2877 6.35986 42.7203 6.49008 43.6728L9.86689 71.7269H13.5036L16.1878 52.332L18.5255 71.7269H22.1622L25.9722 43.8461C26.1455 42.8936 27.5307 42.2877 28.0936 42.2441V41.7248H22.5088V42.2441C23.4177 42.2441 24.4999 42.6337 24.3702 43.5862L21.4696 64.6268L18.7424 41.7248H15.9715L12.8546 64.7139L10.3001 43.8897C10.1704 42.9372 10.8624 42.2441 12.3778 42.2441V41.7248H4.4118V41.7248ZM53.7669 70.9477C52.0352 70.9477 50.346 70.1685 50.0866 65.3199H49.2213V71.7269H50C50.346 71.0349 50.9292 71.106 51.6015 71.424C52.4243 71.8141 53.1174 71.9002 53.9828 71.9002C54.8491 71.9002 57.0135 71.6408 58.1393 69.3893C59.2651 67.1377 59.0918 63.6743 57.7928 62.1158C56.4937 60.5574 53.5501 57.6999 52.4243 56.4008C51.2985 55.1018 51.2985 54.0632 51.2985 53.1968C51.2985 52.3314 52.1649 51.1621 53.6362 51.076C55.1085 50.9888 57.1868 52.1582 57.1868 56.2276H58.0532V50.3834H57.3601C57.274 50.9458 56.4937 50.9458 55.9313 50.6428C55.369 50.3398 54.5887 50.0368 53.6798 50.0368C52.7709 50.0368 50.649 49.9933 49.2644 52.5914C47.8792 55.1895 49.3079 58.4796 50.8659 60.2114C51.7748 61.251 54.4009 63.8948 54.9353 64.4976C57.2734 67.1377 55.7145 71.0349 53.7669 70.9477Z" fill="black"/>
</svg>
