<svg width="100" height="100" viewBox="0 0 100 100" fill="none" xmlns="http://www.w3.org/2000/svg">
<rect width="100" height="100" fill="white"/>
<path d="M76.1656 43.6842C76.749 43.6956 77.3134 43.4637 77.7371 43.0384C78.1607 42.6131 78.4097 42.0285 78.4305 41.4105C78.4183 40.7779 78.1758 40.1746 77.7537 39.727C77.3317 39.2793 76.7626 39.0219 76.1656 39.0084C75.8741 39.0109 75.5862 39.0757 75.3189 39.199C75.0517 39.3222 74.8107 39.5013 74.6103 39.7256C74.41 39.9499 74.2544 40.2148 74.1529 40.5043C74.0515 40.7938 74.0062 41.102 74.0199 41.4105C73.9623 42.6674 74.9536 43.7179 76.1656 43.6842ZM74.1391 44.4421H78.3113V62H74.1391V44.4421ZM82.4834 38H86.6556V61.9979H82.4834V38ZM90.947 38H95V61.9979H90.947V38ZM40.2848 44.4421H44.3377C47.4907 44.4526 53.0795 47.2947 53.0397 54.5474V62H48.8676V54.0421C48.9073 50.9263 47.0457 48.8737 44.3377 48.7368V62H40.2848V44.4421ZM61.2649 44.4421C64.404 44.4526 69.9927 47.2947 69.9669 54.5474V62H65.7947V54.0421C65.8185 50.9263 63.957 48.8737 61.2649 48.7347V61.9979H57.2119V38H61.2649V44.4421ZM35.8742 61.9979H31.8212C30.6225 61.9433 29.4459 61.6383 28.3589 61.1002C27.2719 60.5621 26.296 59.8017 25.4873 58.8626C24.6786 57.9235 24.0531 56.8242 23.6467 55.6281C23.2403 54.4319 23.061 53.1625 23.1192 51.8926V44.4421H27.1722V52.4C27.2278 55.5053 29.0894 57.5579 31.8212 57.5789V44.4421H35.8742V61.9979ZM8.45695 38H5V61.9979H8.45695C14.6934 61.9916 19.7536 56.6295 19.7815 49.9979C19.7517 43.4042 14.6914 38.0442 8.45695 38Z" fill="black"/>
<path d="M9 58V42C12.9935 42.4932 16.0453 45.8947 15.9995 50.0011C16.0208 51.9801 15.3156 53.8961 14.0213 55.3752C12.7271 56.8542 10.9368 57.79 9 58V58Z" fill="white"/>
</svg>
