<svg width="100" height="100" viewBox="0 0 100 100" fill="none" xmlns="http://www.w3.org/2000/svg">
<path fill-rule="evenodd" clip-rule="evenodd" d="M0 0H100V100H0V0Z" fill="white"/>
<path fill-rule="evenodd" clip-rule="evenodd" d="M9.34289 46.4914C9.86532 46.5589 10.3883 46.6766 10.7255 47.1321C11.0456 47.7728 10.7758 48.5147 10.3208 49.02C9.9836 49.3909 9.57894 49.6098 9.15769 49.7956C9.51202 49.9974 9.81499 50.3522 9.79787 50.7735C9.86532 51.7166 9.27545 52.5597 8.44954 52.9643C8.02828 53.1334 7.62362 53.2844 7.1344 53.2683H1.47025L1.63885 52.8294C1.92522 52.7625 2.21212 52.6785 2.44817 52.4253L2.63337 52.0544L4.45433 47.5031C4.47093 47.3682 4.53837 47.183 4.42061 47.0818C4.31944 46.9635 4.18456 46.9132 4.03307 46.8966L4.20168 46.4919H9.34289V46.4914ZM60.9439 46.9464C60.8528 46.9458 60.7634 46.9707 60.6858 47.0184C60.6082 47.0661 60.5456 47.1346 60.505 47.2162L59.7808 49.0703H60.8759L61.651 47.1824C61.6842 47.0642 61.6349 46.9464 61.5161 46.9464H61.4653L61.6173 46.4914H65.3593C65.2416 46.6937 65.2415 47.031 64.9215 47.031L64.6683 47.2836L62.5952 52.4077C62.5952 52.5088 62.5444 52.5929 62.5781 52.7117C62.6289 52.7786 62.713 52.8128 62.798 52.8294L62.6289 53.2683H58.8869C58.9123 53.1692 58.986 52.9482 59.0176 52.8741C59.2386 52.8528 59.3227 52.7573 59.3865 52.6733C59.4705 52.5576 59.5447 52.4424 59.6288 52.2396L60.5558 49.8796L59.4596 49.8625L58.3479 52.5934C58.3136 52.7454 58.448 52.8134 58.5497 52.8466L58.3977 53.2507C57.1505 53.2678 55.8867 53.2678 54.6385 53.2678C54.7023 53.12 54.7713 52.915 54.8351 52.7999C55.0146 52.8102 55.204 52.7257 55.2782 52.5892L55.3311 52.4585L57.4203 47.2836C57.4545 47.1653 57.4545 46.9972 57.3025 46.9464C57.2517 46.9293 57.1676 46.9464 57.2185 46.8618L57.3705 46.4909H61.1125L60.9439 46.9464V46.9464Z" fill="black"/>
<path fill-rule="evenodd" clip-rule="evenodd" d="M8.24726 47.5534C8.33182 48.1599 7.90797 48.8177 7.60655 49.0537C7.33678 49.239 7.01669 49.3235 6.66287 49.3235L7.50591 47.1996C7.80888 47.1824 8.12897 47.267 8.24726 47.5534Z" fill="white"/>
<path fill-rule="evenodd" clip-rule="evenodd" d="M51.3857 48.0592C51.4289 48.1998 51.4328 48.3495 51.3971 48.4922C51.3613 48.6348 51.2872 48.765 51.1828 48.8685C50.8788 49.1212 50.525 49.2395 50.1375 49.3069C50.3061 49.998 50.5255 50.7061 50.7107 51.3972L50.7616 51.38C50.9805 51.1279 51.4355 50.909 51.2845 50.5541C51.1657 50.4031 50.9976 50.4363 50.8456 50.4031L50.9805 50.0991H52.5317L52.4129 50.4192C51.8567 50.8073 51.3857 51.3972 50.8456 51.8693C50.9136 52.2065 50.9468 52.5774 51.3006 52.7632C51.4858 52.8472 51.7218 52.8472 51.9418 52.8301L51.7566 53.2851L49.4127 53.269C49.2778 53.2181 49.0926 53.1341 49.0755 52.965C48.5027 53.201 47.8283 53.3862 47.1373 53.2851C46.5303 53.201 45.8725 52.7969 45.6873 52.1722C45.5187 51.4304 45.6873 50.6382 46.2777 50.1162C46.7664 49.6779 47.3396 49.4584 47.9632 49.3069C47.9295 48.6491 48.2159 48.0592 48.7891 47.7054C49.4127 47.3682 50.3569 47.267 51.0147 47.6208C51.1657 47.722 51.3348 47.8906 51.3857 48.0592V48.0592ZM28.6445 48.0421C28.8131 48.0592 28.948 47.9918 29.0486 47.8569H29.5882L29.032 49.2058L28.5599 49.2229C28.4925 48.8016 28.2227 48.3461 27.8015 48.1609C27.4139 47.9757 26.7904 47.9923 26.436 48.2792C26.3011 48.3803 26.2508 48.4986 26.2674 48.6501C26.2503 48.8696 26.436 49.0211 26.5875 49.1388C27.3631 49.5435 28.4925 49.7795 28.7286 50.8078C28.8131 51.5658 28.4422 52.1728 27.8684 52.6449C26.6715 53.5891 24.834 53.4708 23.4691 52.965C23.3176 52.965 23.2164 53.117 23.149 53.2353V53.2685H22.6603L23.3679 51.5315H23.7726C23.8571 52.0877 24.2784 52.7284 24.8682 52.8467C25.3066 52.9644 25.829 52.9136 26.1496 52.5769C26.3183 52.4078 26.4194 52.1556 26.3011 51.9357C26.0189 51.504 24.9186 51.2955 24.3121 50.7564C23.9246 50.4363 23.8234 49.9466 23.9246 49.4584C24.1435 48.4302 25.2563 47.8398 26.1834 47.6883C27.043 47.5363 27.9032 47.722 28.6445 48.0421V48.0421ZM97.5855 48.0421C97.7535 48.0592 97.8895 47.9918 97.9896 47.8569H98.5297L97.9735 49.2058L97.5014 49.2229C97.4335 48.8016 97.1642 48.3461 96.7424 48.1609C96.3554 47.9757 95.7313 47.9923 95.3775 48.2792C95.2426 48.3803 95.1923 48.4986 95.2084 48.6501C95.1923 48.8696 95.3775 49.0211 95.5285 49.1388C96.3046 49.5435 97.4335 49.7795 97.6695 50.8078C97.7535 51.5658 97.3826 52.1728 96.8104 52.6449C95.6135 53.5891 93.7755 53.4708 92.4111 52.965C92.259 52.965 92.1579 53.117 92.0899 53.2353V53.2685H91.6017L92.3099 51.5315H92.714C92.7981 52.0877 93.2198 52.7284 93.8092 52.8467C94.2481 52.9644 94.771 52.9136 95.0911 52.5769C95.2592 52.4078 95.3609 52.1556 95.2431 51.9357C94.9604 51.504 93.86 51.2955 93.2541 50.7564C92.866 50.4363 92.7649 49.9466 92.866 49.4584C93.085 48.4302 94.1972 47.8398 95.1248 47.6883C95.9845 47.5363 96.8436 47.722 97.5855 48.0421V48.0421ZM36.6012 49.0703C37.0079 50.524 35.9434 51.9865 34.6625 52.8296C33.3982 53.5886 31.4423 53.7738 30.094 53.0656C29.487 52.7118 29.0995 52.0716 29.1498 51.3463C29.1332 49.8963 30.3467 48.6491 31.6109 48.1267C32.8924 47.57 34.7465 47.3682 35.96 48.2278C36.2474 48.4468 36.4834 48.7502 36.6012 49.0703V49.0703ZM84.7288 48.0421C84.8808 48.0758 85.0489 48.0089 85.1501 47.8569H85.6891L85.0152 49.5259H84.5763C84.5431 49.0371 84.4751 48.5313 83.9864 48.2953C83.6316 48.1272 83.1942 48.1775 82.8565 48.3627C82.6044 48.5142 82.3844 48.784 82.2666 49.0371L80.8846 52.4591C80.8675 52.6283 80.8503 52.8472 81.0527 52.9141C81.2555 52.9821 81.4916 52.9484 81.6425 52.8301C82.1146 52.3071 82.2158 51.6509 82.5027 51.0439C82.5281 50.9697 82.5249 50.8888 82.4935 50.817C82.4622 50.7451 82.4052 50.6876 82.3336 50.6558L82.1987 50.6226L82.3175 50.2854H85.7394C85.6715 50.4706 85.6382 50.6895 85.3856 50.7404C84.9135 51.3645 84.7615 52.1224 84.4414 52.8145C82.9914 53.4376 80.9012 53.7753 79.3842 53.0334C78.8452 52.7637 78.44 52.2075 78.4743 51.5834C78.4234 50.0493 79.5871 48.701 80.9183 48.1277C82.0145 47.6379 83.6165 47.4522 84.7288 48.0421V48.0421ZM16.8446 49.0703H16.3897C16.3993 48.9296 16.3697 48.7889 16.3042 48.6639C16.2388 48.5388 16.1399 48.4344 16.0187 48.3622C15.6649 48.2273 15.2265 48.3119 14.839 48.2947C14.6201 48.868 14.3503 49.4413 14.1308 50.0312C14.6367 50.0649 15.1088 49.9129 15.446 49.5253H15.7998C15.5637 50.0654 15.3448 50.6216 15.1254 51.1777L14.7881 51.1948C14.7715 50.9749 14.6533 50.7896 14.4515 50.6719C14.274 50.6043 14.0815 50.5867 13.8948 50.621C13.5918 51.3453 13.3049 52.0872 13.0186 52.813C14.0131 52.897 14.991 52.829 15.5809 51.9528C15.7323 51.8179 15.8169 51.5315 16.1033 51.6498L15.1933 53.2508L9.51257 53.2679L9.64746 52.9131C9.98415 52.8799 10.271 52.5593 10.3893 52.2563L11.8725 48.5811C11.8891 48.4971 11.9063 48.3788 11.8554 48.3113C11.7885 48.2268 11.6868 48.1931 11.5525 48.2102L11.6873 47.8558H17.1658L16.8446 49.0703V49.0703ZM70.5684 49.0703H70.1135C70.123 48.9296 70.0934 48.7889 70.0279 48.6639C69.9624 48.539 69.8637 48.4345 69.7425 48.3622C69.3877 48.2273 68.9503 48.3119 68.5623 48.2947C68.3433 48.868 68.0741 49.4413 67.8552 50.0312C68.361 50.0649 68.832 49.9129 69.1693 49.5253H69.5241C69.289 50.0719 69.064 50.6228 68.8492 51.1777L68.512 51.1948C68.4959 50.9749 68.3771 50.7896 68.1758 50.6719C67.9985 50.6043 67.8062 50.5868 67.6196 50.621C67.3156 51.3453 67.0287 52.0872 66.7424 52.813C67.7374 52.897 68.7153 52.829 69.3047 51.9528C69.4567 51.8179 69.5407 51.5315 69.8276 51.6498L68.9176 53.2508L63.2364 53.2679L63.3713 52.9131C63.7085 52.8799 63.9954 52.5593 64.1131 52.2563L65.5964 48.5811C65.6135 48.4971 65.6306 48.3788 65.5803 48.3113C65.5123 48.2268 65.4111 48.1931 65.2763 48.2102L65.4111 47.8558H70.8901L70.5684 49.0703ZM92.2637 49.0703H91.8087C91.8185 48.9295 91.789 48.7888 91.7235 48.6638C91.658 48.5387 91.5591 48.4343 91.4378 48.3622C91.084 48.2273 90.6456 48.3119 90.2586 48.2947C90.0386 48.868 89.7694 49.4413 89.5504 50.0312C90.0563 50.0649 90.5284 49.9129 90.8656 49.5253H91.2194C90.9833 50.0654 90.7644 50.6216 90.5444 51.1777L90.2083 51.1948C90.2002 51.0864 90.1651 50.9818 90.1062 50.8905C90.0473 50.7991 89.9664 50.724 89.871 50.6719C89.6938 50.6043 89.5015 50.5867 89.3149 50.621C89.0119 51.3453 88.725 52.0872 88.4387 52.813C89.4327 52.897 90.4106 52.829 91.001 51.9528C91.1519 51.8179 91.237 51.5315 91.5229 51.6498L90.6129 53.2508L84.9327 53.2679L85.0676 52.9131C85.4038 52.8799 85.6906 52.5593 85.8094 52.2563L87.2927 48.5811C87.3087 48.4971 87.3259 48.3788 87.2755 48.3113C87.2076 48.2268 87.1075 48.1931 86.9726 48.2102L87.1075 47.8558H92.5864L92.2637 49.0703V49.0703ZM20.941 47.8569C21.1936 48.9023 21.4971 49.9134 21.784 50.9422L22.6437 48.8011C22.6608 48.6662 22.6945 48.5313 22.6271 48.3964C22.5422 48.2942 22.4217 48.228 22.2898 48.2112L22.4247 47.8569H24.2286L24.0937 48.1941C23.7736 48.2107 23.5038 48.4976 23.3855 48.784L21.5651 53.2685H19.6601C19.3566 52.1894 19.0702 51.1103 18.733 50.0483L17.7722 52.4254C17.7554 52.4962 17.7591 52.5704 17.783 52.6391C17.8069 52.7079 17.85 52.7684 17.9071 52.8135C17.9574 52.8804 18.1432 52.8643 18.0757 52.9987L17.9746 53.2508L15.9684 53.2679L16.1033 52.9307C16.5079 52.8975 16.8789 52.6277 17.0807 52.2568L18.4124 48.9692C18.2755 48.5017 18.3071 48.2698 18.0415 48.2107C18.0244 48.1095 18.1089 47.9746 18.1426 47.8564H20.941V47.8569V47.8569Z" fill="black"/>
<path fill-rule="evenodd" clip-rule="evenodd" d="M40.5793 47.8569C40.8325 48.9022 41.136 49.9134 41.4223 50.9421L42.282 48.8011C42.2986 48.6662 42.3328 48.5313 42.2654 48.3964C42.1805 48.2942 42.06 48.228 41.9282 48.2112L42.063 47.8569H43.8669L43.732 48.1941C43.4114 48.2107 43.1421 48.4976 43.0238 48.784L41.2034 53.2684H39.2984C38.9954 52.1893 38.7085 51.1102 38.3713 50.0483L37.41 52.4254C37.3931 52.4962 37.3968 52.5703 37.4207 52.6391C37.4446 52.7079 37.4877 52.7684 37.5449 52.8134C37.5957 52.8803 37.7809 52.8643 37.7135 52.9986L37.6123 53.2508L35.6062 53.2679L35.7411 52.9307C36.1457 52.8975 36.5166 52.6277 36.719 52.2568L38.0507 48.9692C37.9138 48.5017 37.9449 48.2698 37.6798 48.2107C37.6627 48.1095 37.7472 47.9746 37.7809 47.8564H40.5793V47.8569V47.8569ZM77.0083 47.8735C77.6152 47.9746 78.3063 48.3793 78.4754 49.0366C78.6435 50.5027 77.8342 51.7499 76.6544 52.6277C76.0475 53.0318 75.3564 53.2004 74.5974 53.2508L69.7763 53.2679L69.9112 52.9307C70.2484 52.9307 70.5861 52.8129 70.721 52.4757L72.2883 48.5982C72.3391 48.4296 72.2375 48.3119 72.1031 48.2439L71.8162 48.1936L71.9511 47.8564L77.0083 47.8735V47.8735Z" fill="black"/>
<path fill-rule="evenodd" clip-rule="evenodd" d="M50.6775 48.0089C50.8124 48.1438 50.8456 48.329 50.8124 48.4976C50.6604 48.8343 50.29 48.7839 50.0202 48.8685C49.9357 48.6325 49.7339 48.3627 49.8854 48.0929C50.07 47.8398 50.4586 47.8569 50.6775 48.0089V48.0089ZM76.0646 48.4976C76.1315 48.7165 76.0963 48.923 76.0138 49.1549L74.6649 52.4761C74.4117 52.8974 73.9059 52.8974 73.467 52.8299L75.3222 48.1946C75.6257 48.177 75.9297 48.2107 76.0646 48.4976ZM34.3927 48.4976C34.4368 48.6387 34.3927 48.7839 34.3927 48.7839L32.9432 52.3744C32.7512 52.7474 32.3367 52.9814 31.8812 52.9477C31.751 52.9325 31.6281 52.8797 31.5274 52.7957C31.4096 52.6945 31.4262 52.5259 31.4428 52.3915L32.8929 48.8177C33.1455 48.413 33.5839 48.1432 34.0726 48.2444C34.1904 48.2781 34.3486 48.3559 34.3927 48.4976V48.4976ZM48.0307 49.711C48.3342 50.6552 48.6039 51.6155 48.9246 52.5602C48.4696 52.5934 48.0649 52.3241 47.8289 51.9532C47.4745 51.3799 47.3905 50.4363 47.8117 49.863C47.8792 49.8122 47.9461 49.7447 48.0307 49.711ZM7.0503 50.4363C7.21891 51.2622 6.84797 52.0543 6.13982 52.5093C5.88717 52.6442 5.60028 52.7282 5.28018 52.7282L6.35927 50.0482C6.64616 50.0311 6.93253 50.1494 7.0503 50.4363V50.4363Z" fill="white"/>
</svg>
