<svg width="100" height="100" viewBox="0 0 100 100" fill="none" xmlns="http://www.w3.org/2000/svg">
<path fill-rule="evenodd" clip-rule="evenodd" d="M0 0H100V100H0V0Z" fill="white"/>
<path fill-rule="evenodd" clip-rule="evenodd" d="M53.3068 38.6452C53.342 37.1755 53.7062 36.9607 53.7062 36.9607C55.9251 34.8617 57.7621 34.4015 57.7621 34.4015C57.7621 34.4015 57.7538 33.4438 58.7318 33.3183C60.353 33.1107 61.6105 34.6017 61.6105 34.6017L62.4577 34.2791C62.4577 34.2791 62.163 34.0695 62.0411 34.0342C61.8902 33.9906 61.8362 33.9834 61.6806 34.0114C61.5488 34.0347 61.5146 33.8822 61.4912 33.7883C61.4549 33.6415 61.4383 33.5201 61.3574 33.3364C61.3574 33.3364 60.4972 32.5323 60.7182 31.1285C60.9392 29.7241 62.9656 29.6598 63.0823 29.5887C63.198 29.5176 62.2289 28.0308 62.2289 28.0308C62.2289 28.0308 62.1387 27.6438 62.7171 27.8865C63.3718 28.161 64.5137 30.7446 64.5137 30.7446C64.5137 30.7446 64.8654 30.9287 65.1025 31.4174C65.2353 31.6903 65.3749 31.1321 65.4703 30.8768C65.585 30.5723 65.5596 30.3389 65.5352 30.3155C65.282 30.066 63.997 27.5711 63.5493 27.0612C63.1026 26.5512 62.5189 26.5092 62.5189 26.5092C62.5189 26.5092 62.2808 26.5009 62.231 26.7021C62.1885 26.8682 62.3648 26.8957 62.2694 27.306C62.1926 27.6401 61.9451 27.5192 61.8528 27.6604C61.7605 27.8015 61.9742 28.2668 61.6733 28.4567C61.3724 28.6461 61.0907 28.5086 60.7898 28.6512C60.4879 28.7939 60.6295 29.0964 60.3976 29.1918C60.1657 29.2873 59.7683 29.1975 59.6287 29.1986C59.4887 29.2001 59.4223 29.5503 59.0026 29.555C58.5829 29.5586 58.0267 28.9501 57.8778 28.8167C57.4078 28.4001 57.3741 27.2557 57.882 26.7136C58.3904 26.1714 59.2905 25.1121 59.2905 25.1121C59.2905 25.1121 59.4109 25.0016 59.6381 24.9678C60.1439 24.8921 60.9958 24.585 61.0808 24.6529C61.1986 24.7453 63.6546 25.705 63.6546 25.705L64.0789 26.3089L67.1408 29.9513C67.1408 29.9513 67.1865 30.0317 67.1621 30.1843C67.1196 30.4473 67.0646 30.5038 67.0314 30.7466C66.855 31.9865 65.9616 33.7473 65.9616 33.7706C65.9616 33.794 66.5805 35.2373 66.2879 36.4315C66.0062 37.5806 64.1977 37.2678 64.1967 37.1277C64.1967 37.1277 63.8595 38.4859 62.631 39.3378C60.9128 40.5294 60.1112 41.7434 60.1112 41.7434L59.6765 42.6585C59.6765 42.6585 60.7597 43.319 60.9735 44.4702C61.2432 45.9165 60.0453 47.6332 60.0453 47.6332C60.0453 47.6332 59.7719 48.2433 59.7787 49.1081C59.7859 49.9724 61.1649 52.2468 61.3724 52.7858C61.5872 53.3451 62.177 54.2509 62.1848 55.1152C62.189 55.5831 62.1283 56.6352 62.1283 56.6352C62.1283 56.6352 63.0253 57.9851 62.9641 58.9179C62.963 58.9402 62.8717 59.0357 62.8717 59.0357C62.8717 59.0357 62.2829 59.0134 61.9861 59.0901C61.5213 59.2105 61.8948 59.3241 61.058 59.5187C60.2202 59.7122 59.5431 59.625 59.5431 59.625C59.5431 59.625 59.5961 60.302 59.4804 60.4203C59.3647 60.5381 59.0851 60.5168 58.9709 60.7518C58.8568 60.9868 58.7743 61.4958 58.7743 61.4958L58.436 61.4989L58.4594 60.9438C58.4594 60.9438 58.3925 60.8058 58.3297 60.8021C58.1383 60.7902 58.035 60.8711 57.9499 61.0086C57.8119 61.2317 57.7248 61.5061 57.7248 61.5061L56.0237 61.5201C56.0237 61.5201 55.9344 61.3106 56.2711 61.185C56.4667 61.1119 57.0037 60.9215 57.0374 60.7928C57.0711 60.6641 56.931 60.6066 56.931 60.6066C56.931 60.6066 55.5448 60.6776 54.6696 60.5448C53.7944 60.412 52.8367 60.0131 52.3927 60.0271C51.3904 60.0592 51.0915 60.5173 50.4513 60.6045C49.8106 60.6927 49.8573 60.6999 49.228 60.6745C48.2719 60.6361 46.866 61.0921 45.9565 61.0999C45.0476 61.1082 43.4705 60.6968 43.1099 60.7269C42.9584 60.7399 42.8884 60.6948 42.7613 60.8244C42.6192 60.9692 42.5393 61.5093 42.5393 61.5093L42.1611 61.5124L42.1564 60.9277C42.1564 60.9277 42.089 60.7617 42.0262 60.7575C41.8342 60.7466 41.7315 60.8265 41.6464 60.965C41.5084 61.1881 41.4208 61.5191 41.4208 61.5191L39.6906 61.5051C39.6906 61.5051 39.6309 61.2659 39.9671 61.1404C40.1627 61.0672 40.6581 60.8587 40.7328 60.7482C40.8117 60.6315 41.0898 60.1635 41.0021 60.1443C39.8919 59.8969 38.1648 58.9475 38.1648 58.9475C38.1648 58.9475 38.1062 58.8665 38.1638 58.7721C38.2836 58.3861 40.0558 56.559 40.0558 56.559C40.0558 56.559 44.7612 46.9972 54.251 43.1265C54.5456 43.0061 53.5044 43.0398 53.4546 42.7597C53.2964 41.8663 53.2907 39.3134 53.3068 38.6452V38.6452Z" fill="black"/>
<path fill-rule="evenodd" clip-rule="evenodd" d="M54.3329 42.0962C54.335 42.2824 54.9358 41.7636 55.4961 41.8057C56.0553 41.8477 56.4304 42.1247 56.4304 42.1247C56.4304 42.1247 57.1723 41.6039 57.5401 40.9932C57.9079 40.3821 58.3557 38.3225 58.3557 38.3225C58.3557 38.3225 57.8996 37.9199 57.7902 37.5791C57.6029 37.0011 57.7783 36.224 57.7783 36.224L54.8538 37.6984C54.8538 37.6984 54.3594 39.8057 54.3329 42.0962Z" fill="white"/>
<path d="M61.4939 52.9908C72.2282 51.5014 75.2481 48.6916 75.246 46.6211C75.2429 44.3115 72.3003 43.7844 69.5118 43.7698C68.3414 43.7641 65.0159 44.0967 65.7355 41.387C66.2745 39.3622 71.9143 38.4445 76.5046 38.7697C80.3986 39.0457 87.4589 38.6291 87.4589 38.6291C87.4589 38.6291 94.9284 38.3028 94.8838 33.5564C94.8454 29.5176 89.2186 30.6216 89.4458 27.0954C89.6476 23.966 95.5883 23.6631 95.5883 23.6631M10.5449 65.8724C10.0791 64.1894 5.94844 55.6029 10.8578 51.6684C14.9204 48.4115 21.2206 47.8195 24.3297 47.6955C35.3291 47.2582 36.2853 44.9221 36.4964 43.6298C37.0692 40.1217 29.7376 40.779 29.7376 40.779C29.7376 40.779 22.6105 41.3222 23.025 36.2925C23.4903 30.6346 32.3482 30.1729 34.0254 30.1236C41.95 29.8901 46.658 29.4222 47.4045 27.1794C48.1506 24.9362 46.7737 23.688 46.2388 22.3656C45.8627 21.4359 45.3999 18.954 47.6375 16.8975C49.8745 14.8416 52.8389 15.3365 55.2829 15.5424C61.6594 16.0804 72.0871 24.0164 82.4131 18.6272L10.5449 65.8724ZM13.9741 65.0371C13.9741 65.0371 12.2663 60.7452 15.6057 57.2625C18.3118 54.4398 28.4406 54.8356 28.4406 54.8356C28.4406 54.8356 33.7966 54.8024 41.2283 54.487L13.9741 65.0371ZM41.5443 54.474C41.5821 54.473 41.62 54.4709 41.6579 54.4689L41.5443 54.474ZM41.6574 54.4689C41.7144 54.4668 41.7715 54.4647 41.8291 54.4616L41.6574 54.4689Z" stroke="black" stroke-width="0.5" stroke-miterlimit="2.613"/>
<path fill-rule="evenodd" clip-rule="evenodd" d="M27.818 61.6671H31.5071L23.6267 77.7263H19.9516L27.818 61.6671V61.6671ZM33.1336 61.6671H42.6041L41.028 64.8997H38.0766L31.7868 77.7263H28.1112L34.4015 64.8997H31.5497L33.1336 61.6671V61.6671ZM34.4087 77.7263L46.1858 61.6671H49.5958L46.329 77.7263H42.9906L45.1399 68.2028L38.3344 77.7196L34.4087 77.7263V77.7263Z" fill="black"/>
<path fill-rule="evenodd" clip-rule="evenodd" d="M41.7299 72.8143H44.1656L43.7003 75.084H40.0677L41.7299 72.8143ZM55.785 61.6671H58.9517L57.9639 68.3761L61.2302 61.6671H64.5976L56.7317 77.7262H53.6797L54.6249 70.9031L51.286 77.7262H47.9051L55.785 61.6671ZM68.9384 61.6671H76.3747L74.7836 64.9137H71.0156L69.4826 68.0882H73.208L71.647 71.2912H67.921L66.3299 74.4797H70.0698L68.4663 77.7262H61.0579L68.9384 61.6671ZM21.1267 67.5279H17.4443L18.7195 64.9137C18.7195 64.9137 19.2782 63.9513 18.2894 63.9228C17.3006 63.8932 16.8851 64.9137 16.8851 64.9137L12.1926 74.4584C12.1926 74.4584 11.8704 75.1982 12.8012 75.1982C13.9046 75.1982 14.1199 74.2509 14.1199 74.2509L15.3666 71.7793H14.4063L15.6669 69.2513H20.2805L17.4153 75.0835C17.4153 75.0835 16.6418 78.0707 11.6266 77.9561C6.84233 77.8466 8.64668 74.1642 8.64668 74.1642C8.64668 74.1642 12.8162 65.5959 13.1887 64.8991C13.5612 64.2019 14.5209 60.9776 19.4214 61.3221C23.7253 61.6251 22.4662 64.8058 22.4014 64.9132C22.3365 65.0205 21.1267 67.5279 21.1267 67.5279V67.5279ZM79.2545 71.7368C78.8815 71.3347 77.2483 69.5818 76.8478 69.1366C76.4458 68.692 76.244 67.8236 76.631 67.0189C76.8784 66.5032 77.4942 65.2348 77.5897 65.0574C77.9617 64.3601 78.9209 61.1358 83.8214 61.4803C88.1258 61.7833 86.8662 64.963 86.8024 65.0714C86.7375 65.1788 85.4701 67.8578 85.4701 67.8578H81.7867L83.119 65.0714C83.119 65.0714 83.6782 64.109 82.6904 64.0805C81.7016 64.052 81.2861 65.0714 81.2861 65.0714C81.2861 65.0714 80.4207 66.7777 80.2921 67.0511C80.1624 67.3235 80.042 67.671 80.4301 68.0736C80.816 68.4757 82.1545 69.9055 82.7361 70.5296C83.5387 71.3918 83.6642 71.6502 83.0199 72.8429C82.7688 73.3051 81.8163 75.2412 81.8163 75.2412C81.8163 75.2412 81.0422 78.2284 76.0276 78.1138C71.2428 78.0043 73.0477 74.3209 73.0477 74.3209L74.1652 72.0522H77.8615L76.5941 74.6156C76.5941 74.6156 76.2709 75.3554 77.2032 75.3554C78.3067 75.3554 78.5214 74.407 78.5214 74.407C78.5214 74.407 79.1232 73.1578 79.337 72.7552C79.5523 72.3542 79.627 72.1394 79.2545 71.7368V71.7368Z" fill="black"/>
<path d="M74.0786 75.7019L74.269 75.3139M28.8489 63.046H32.5385L24.6586 79.1052H20.984L28.8489 63.046V63.046ZM32.5385 63.046L24.6586 79.1052L32.5385 63.046ZM34.165 63.046H43.6355L42.0594 66.2781H39.108L32.8182 79.1052H29.1431L35.4329 66.2781H32.5816L34.165 63.046V63.046ZM45.1976 74.1933L44.7322 76.4619H41.2433L39.3663 79.0984L35.4407 79.1057L47.2182 63.0465H50.6282L47.3614 79.1057H44.023L46.1718 69.5823L44.9506 71.2896L45.1976 74.1933ZM56.8169 63.046H59.9836L58.9958 69.754L62.2626 63.046H65.6296L57.7637 79.1052H54.7117L55.6569 72.2821L52.318 79.1052H48.937L56.8169 63.046V63.046ZM69.9698 63.046H77.4061L75.8155 66.2926H72.047L70.515 69.4671H74.24L72.6784 72.6701H68.9525L67.3629 75.8586H71.1018L69.4977 79.1052H62.0899L69.9698 63.046ZM22.1581 68.9068H18.4757L19.7509 66.2926L22.1581 68.9068ZM19.7514 66.2926C19.7514 66.2926 20.3101 65.3303 19.3218 65.3017C18.333 65.2732 17.9175 66.2926 17.9175 66.2926H19.7514ZM17.9175 66.2926L13.225 75.8373L17.9175 66.2926ZM13.225 75.8378C13.225 75.8378 12.9028 76.5776 13.8341 76.5776C14.937 76.5776 15.1523 75.6293 15.1523 75.6293L13.225 75.8378ZM15.1523 75.6288L16.3984 73.1583H15.4382L16.6988 70.6302H21.3124L18.4472 76.4614L15.1523 75.6288ZM18.4477 76.4619C18.4477 76.4619 17.6736 79.4502 12.659 79.3355C7.87472 79.2261 9.67855 75.5427 9.67855 75.5427C9.67855 75.5427 13.8476 66.9743 14.2206 66.2786C14.5925 65.5813 15.5528 62.3571 20.4528 62.7015C24.7562 63.0045 23.4971 66.1852 23.4327 66.2926C23.3684 66.4 22.1575 68.9068 22.1575 68.9068L18.4477 76.4619ZM75.8731 73.4312H78.148L77.1436 75.4617L75.8731 73.4312ZM77.6251 75.9956C77.6251 75.9956 77.3029 76.7354 78.2341 76.7354C79.3366 76.7354 79.5524 75.787 79.5524 75.787C79.5524 75.787 80.1542 74.5378 80.369 74.1352C80.5837 73.7326 80.659 73.5183 80.286 73.1157C79.914 72.7137 78.2808 70.9607 77.8793 70.5156C77.4783 70.0699 77.2754 69.2015 77.6624 68.3968C77.9099 67.8822 78.5257 66.6127 78.6212 66.4363C78.9931 65.7391 79.9534 62.5148 84.8539 62.8593C89.1573 63.1622 87.8976 66.3429 87.8338 66.4503C87.769 66.5577 86.5016 69.2367 86.5016 69.2367L77.6251 75.9956ZM86.5011 69.2373H82.8187L84.1509 66.4508L86.5011 69.2373ZM84.1515 66.4508C84.1515 66.4508 84.7097 65.4885 83.7209 65.46C82.7331 65.4314 82.3165 66.4508 82.3165 66.4508C82.3165 66.4508 81.4522 68.1571 81.3235 68.4295C81.1938 68.7029 81.0745 69.0505 81.4605 69.4531C81.8486 69.8541 83.187 71.2839 83.7676 71.909C84.5701 72.7702 84.6957 73.0296 84.0513 74.2213C83.8002 74.6846 82.8477 76.6207 82.8477 76.6207C82.8477 76.6207 82.0737 79.6079 77.0591 79.4932C72.2753 79.3838 74.0791 75.7014 74.0791 75.7014L84.1515 66.4508Z" stroke="black" stroke-width="0.5" stroke-miterlimit="2.613"/>
<path d="M41.5992 54.404C46.175 54.2043 51.8843 53.8993 57.1915 53.4334C58.6109 53.3089 59.9282 53.1636 61.1504 53.0028" stroke="white" stroke-width="0.5" stroke-miterlimit="2.613" stroke-linecap="round" stroke-linejoin="round"/>
</svg>
