<svg width="100" height="100" viewBox="0 0 100 100" fill="none" xmlns="http://www.w3.org/2000/svg">
<path fill-rule="evenodd" clip-rule="evenodd" d="M0 0H100V100H0V0Z" fill="white"/>
<path fill-rule="evenodd" clip-rule="evenodd" d="M31.4618 61.3884C28.8286 61.3884 26.3098 59.9135 24.679 57.8988C22.8207 55.609 21.9153 52.6496 21.9153 49.7228C21.9153 46.9106 22.7471 44.0815 24.4668 41.8398C26.1625 39.639 28.7141 38.0654 31.5513 38.0654C34.1601 38.0654 36.6625 39.5577 38.2688 41.5463C40.1194 43.8371 41.0406 46.8043 41.0406 49.7315C41.0406 52.5351 40.2007 55.3641 38.4886 57.6059C36.8097 59.7898 34.2741 61.3884 31.4618 61.3884V61.3884ZM5 38.5465H12.9321V38.774H10.9838L16.9022 54.9803L21.8994 38.774H19.9348V38.5465H24.2148V38.774H22.3233L15.2801 61.1758L7.0873 38.774H5V38.5465ZM58.4047 38.1549V45.9403H58.2253C57.891 44.4076 57.4181 42.9159 56.595 41.5627C55.617 39.981 54.0599 38.2044 52.0298 38.2044C47.3669 38.2044 46.9431 46.5604 46.9431 49.7478C46.9431 52.6014 47.1712 55.5441 48.2064 58.2178C48.9318 60.0929 49.9834 61.0136 51.9322 61.0136C53.4807 61.0136 55.1278 60.231 55.9509 58.8855C56.163 58.5348 56.1794 58.1442 56.1794 57.7449V51.7279H54.1416V51.4921H61.6009V51.7279H59.8561V60.7279H59.7021C59.2615 59.9943 58.5683 59.5132 57.6803 59.5132C57.0357 59.5132 56.4079 59.7417 55.8465 60.0515L55.3409 60.3286C54.1994 60.8342 53.1064 61.2003 51.8432 61.2003C46.0556 61.2003 42.974 55.0293 42.974 49.9104C42.974 46.1683 44.4008 42.1654 47.4333 39.8261C48.7947 38.774 50.4414 38 52.1938 38C52.8789 38 53.5552 38.2117 54.1912 38.4647L54.6564 38.6441C55.1865 38.8399 55.7652 39.0271 56.3352 39.0271C57.0448 39.0271 57.6808 38.5624 58.2268 38.1549H58.4047V38.1549ZM60.6306 38.5465H68.5867V38.7745H66.4754V56.0492C66.4754 58.7551 69.2631 60.4022 71.7001 60.4022C74.3252 60.4022 76.5342 58.5766 76.5342 55.8943V38.774H74.0405V38.546H94.5757V46.5594H94.4208C94.1841 44.4399 93.7762 42.2631 92.3172 40.6083C90.8422 38.9371 88.8362 38.774 86.774 38.774H84.5491V49.0787C85.0046 49.1273 85.4698 49.16 85.935 49.16C88.7309 49.16 89.4563 47.2362 89.5785 44.8555H89.7825V53.896H89.5785C89.2278 51.736 88.2744 49.4207 85.7387 49.4207C85.3395 49.4207 84.9484 49.4452 84.5491 49.478V60.4994H87.8828C89.6117 60.4994 91.331 59.7494 92.5543 58.5434C93.5972 57.5164 94.3236 56.1795 94.5762 54.7364C94.7143 53.9292 94.7802 53.1061 94.8206 52.2907H95V60.7279H78.9487V60.4994H80.8156V38.774H76.8695V55.9592C76.8695 59.5128 73.4945 61.0863 70.332 61.0863C66.7534 61.0863 62.8069 59.3502 62.8069 55.2573V38.774H60.6311V38.5465H60.6306V38.5465Z" fill="black"/>
<path fill-rule="evenodd" clip-rule="evenodd" d="M37.0133 49.7228C37.0133 46.4863 35.8558 38.3993 31.4782 38.3993C27.0843 38.3993 25.9427 46.4781 25.9427 49.7228C25.9427 52.967 27.0924 61.054 31.4782 61.054C35.8558 61.0535 37.0133 52.9593 37.0133 49.7228V49.7228Z" fill="white"/>
</svg>
