<svg width="100" height="100" viewBox="0 0 100 100" fill="none" xmlns="http://www.w3.org/2000/svg">
<path fill-rule="evenodd" clip-rule="evenodd" d="M0 0H100V100H0V0Z" fill="white"/>
<path fill-rule="evenodd" clip-rule="evenodd" d="M0 0H100V100H0V0Z" fill="white"/>
<path fill-rule="evenodd" clip-rule="evenodd" d="M49.9963 1.47023C23.1941 1.47231 1.46816 23.2024 1.47023 50.0036C1.47231 76.8054 23.2013 98.5318 50.0026 98.5297C76.8048 98.5266 98.5302 76.7981 98.5292 49.9953C98.5266 23.1941 76.7971 1.46868 49.9963 1.47023V1.47023Z" fill="black"/>
<path fill-rule="evenodd" clip-rule="evenodd" d="M49.9876 4.2136C24.6955 4.21516 4.19342 24.7209 4.1955 50.0124C4.19705 75.3034 24.7028 95.8065 49.9943 95.8039C75.2864 95.8018 95.788 75.2966 95.7869 50.0056C95.7838 24.7136 75.2791 4.21101 49.9876 4.2136V4.2136Z" fill="#A5A183"/>
<path fill-rule="evenodd" clip-rule="evenodd" d="M49.9876 9.43056C27.5774 9.43264 9.41142 27.6017 9.41298 50.0124C9.41454 72.4226 27.5841 90.5897 49.9943 90.5876C72.404 90.5855 90.5705 72.4159 90.5695 50.0052C90.5674 27.5945 72.3978 9.42797 49.9876 9.43056V9.43056Z" fill="white"/>
<path fill-rule="evenodd" clip-rule="evenodd" d="M49.9839 14.8561C30.5806 14.8576 14.8509 30.5889 14.8524 49.9923C14.854 69.3961 30.5858 85.1253 49.9891 85.1232C69.3924 85.1222 85.1221 69.3914 85.119 49.9871C85.119 30.5838 69.3872 14.854 49.9839 14.8561V14.8561Z" fill="#C23C40" stroke="#C23C40" stroke-width="2.80147" stroke-miterlimit="2.613"/>
<path fill-rule="evenodd" clip-rule="evenodd" d="M59.0773 31.8729L59.0581 38.8014L61.9913 31.8729H68.9416L71.1796 37.0832L72.9113 31.8906L76.7426 31.8735L73.0208 41.2957L73.0281 47.6873L69.2746 47.6909L69.2798 41.302L65.5845 32.6496L62.8255 39.3586L66.9982 47.6805L62.8001 47.679L59.055 40.0014L59.0643 47.6821H55.3586L55.3607 31.8729H59.0773V31.8729ZM64.7264 57.6434L68.4347 66.0789L64.2097 66.0903L61.0959 58.2888L61.1089 66.0758H57.4114L57.4146 50.2931H61.1089L61.1109 57.0478L64.0354 50.2931H68.0861L64.7264 57.6434V57.6434ZM39.4395 50.2895V53.6726L36.8289 53.6736V66.066L32.9785 66.0639L32.9889 53.6606L30.3301 53.6617V50.3056L39.4395 50.2895V50.2895ZM28.4251 44.1807V31.8833H24.5533V47.6701H32.29V44.1807H28.4251ZM51.8578 50.3004H55.6745V66.0639H51.8578V50.3004ZM77.1608 53.5205V50.3004H69.3083V66.0639H77.1608V62.8183H73.0706V59.3014H76.7525V56.3843H73.0706V53.5205H77.1608V53.5205ZM50.4373 35.5024C51.34 34.9286 52.692 35.0983 53.535 35.7172L54.0419 36.0767L54.0378 32.2708C52.5483 31.4968 50.6127 31.2037 48.9494 31.7583C46.1646 32.6553 44.9714 35.7001 44.8043 38.4751C44.7846 38.8611 44.7462 39.2496 44.7452 39.6382C44.7358 40.0268 44.7649 40.4154 44.7742 40.8019C44.8692 43.581 45.9815 46.6538 48.7419 47.6229C50.3896 48.2216 52.485 47.8823 53.9937 47.1482L53.9978 43.457L53.4292 43.8575C52.5691 44.4541 51.214 44.589 50.3274 43.9909C48.9744 43.0529 48.5547 41.3839 48.607 39.7248C48.5972 38.0652 49.061 36.4051 50.4373 35.5024V35.5024ZM24.089 59.1941C22.7998 58.4532 21.9474 57.6709 21.5231 56.0995C21.1542 54.7324 21.3425 53.2311 22.0668 52.014C23.6641 49.3303 27.0995 49.4968 29.363 50.7979L29.3501 54.4315C27.058 52.6402 25.663 52.9929 25.2361 53.7343C25.0296 54.0938 24.999 54.3657 25.083 54.7708C25.1702 55.1931 25.4846 55.4344 25.8446 55.6414L27.417 56.5342C28.7062 57.275 29.6499 58.0065 30.0748 59.578C30.4442 60.945 30.2393 62.5268 29.5555 63.7656C27.9089 66.7435 24.4257 66.8042 21.5158 65.3604L21.5288 61.6101C24.5658 63.6173 25.9188 62.9626 26.3457 62.2202C26.5517 61.8606 26.6062 61.442 26.4978 61.042C26.3893 60.642 26.1315 60.3074 25.772 60.1009L24.089 59.1941V59.1941ZM48.8146 51.0257C50.4612 52.4207 50.7777 54.8336 50.1748 56.7646C49.7489 58.1285 48.9313 58.931 47.9544 59.386L47.8833 59.4182L50.7605 66.0634L46.9065 66.0696L44.5989 60.2171H44.0567L44.063 66.0696L40.3728 66.0805V50.3077L46.8452 50.2973C46.8447 50.2973 48.0239 50.3481 48.8146 51.0257V51.0257ZM44.0111 53.2845V56.9882C44.879 56.9752 45.8876 57.1137 46.4297 56.3983C46.9075 55.7669 46.8867 54.6131 46.5381 53.9159C45.9913 53.0962 44.9029 53.3229 44.0111 53.2845V53.2845ZM36.6967 42.9408C36.6967 43.8171 37.4162 44.5335 38.3002 44.5335C38.7236 44.5342 39.13 44.3669 39.4301 44.0683C39.7303 43.7697 39.8997 43.3642 39.9012 42.9408L39.9017 31.8994H43.4617L43.4653 43.331C43.4005 45.3823 42.0158 47.1747 40.0844 47.8014C39.4255 48.0151 38.8891 48.0738 38.2842 48.0732C37.6787 48.0738 37.1433 48.0146 36.4839 47.8014C34.553 47.1747 33.1684 45.3823 33.103 43.331L33.1066 31.8994H36.6925L36.6967 42.9408Z" fill="black"/>
</svg>
