<svg width="100" height="100" viewBox="0 0 100 100" fill="none" xmlns="http://www.w3.org/2000/svg">
<path fill-rule="evenodd" clip-rule="evenodd" d="M0 0H100V100H0V0Z" fill="white"/>
<path fill-rule="evenodd" clip-rule="evenodd" d="M95.5882 71.9801H4.4118V28.0199H95.5882V71.9801V71.9801Z" fill="#AE2227"/>
<path fill-rule="evenodd" clip-rule="evenodd" d="M25.4788 42.2934L22.9918 66.0644H20.1778L18.3221 48.6828L16.6205 66.0644H13.7469L11.1701 42.2949L9.60385 42.2934V41.6521L15.6701 41.6532V42.2949L14.0955 42.2934L16.2433 61.4331L18.1971 41.6521H20.6105L22.6883 61.4326L24.6975 42.2934H22.9539V41.6521L27.2199 41.6532V42.2949L25.4788 42.2934V42.2934Z" fill="white"/>
<path fill-rule="evenodd" clip-rule="evenodd" d="M25.6272 66.0644V65.4226H26.9947V49.2125H25.6272V48.5713H29.9799V65.4226H31.0398V66.0644H25.6272V66.0644ZM26.7442 45.3568C26.7447 44.9444 27.0752 44.049 28.3799 44.051C29.7542 44.0536 30.0338 44.9781 30.0338 45.3568C30.0338 45.7241 29.7796 46.631 28.3799 46.6299C27.0752 46.6294 26.7442 45.7283 26.7442 45.3568ZM38.4242 66.0644V50.9982C38.4081 49.8921 38.2478 49.2031 37.08 49.2581C36.3216 49.2934 35.672 49.7608 35.6342 50.9426L35.6383 65.4231H37.0053V66.0644H31.5793V65.4231H32.6631V49.2125H31.3002V48.5713H35.6368V49.3147C36.5929 48.2538 38.9264 48.3482 39.9313 48.6828C41.2937 49.1373 41.3258 50.1017 41.3258 50.9883L41.3284 65.4226H42.3686L42.3707 66.0659L38.4242 66.0644V66.0644ZM50.4321 44.6041C50.248 44.4406 49.9066 44.3499 49.5445 44.285C48.9577 44.1807 48.2346 44.3441 48.0239 44.437C47.775 44.5415 47.5589 44.7111 47.3983 44.9282C47.2378 45.1452 47.1389 45.4016 47.1119 45.6702C47.0761 46.0416 47.1031 46.4691 47.0953 46.9054C47.101 47.721 47.0911 48.5707 47.0911 48.5707H52.9296V65.4221H54.6053V66.0633H48.814V65.4221H49.9372L49.9393 49.2114H47.0911V65.4216L48.2309 65.4226V66.0628H42.9486V65.4216H44.106V49.2125H42.7074L42.7079 48.5692H44.093C44.0879 47.2598 44.3104 45.692 45.3739 44.8427C45.8969 44.3478 46.5739 44.036 47.2935 43.856C47.8859 43.7071 48.4 43.6438 49.1155 43.637C50.0685 43.6287 50.9489 43.7745 51.5356 43.9732C52.941 44.4489 53.0131 45.1784 53.0121 45.6453C53.0111 46.3104 52.3797 46.8432 51.5035 46.8432C50.5188 46.8432 49.7961 46.383 49.7961 45.639C49.7956 45.3247 49.8744 44.8546 50.4321 44.6041V44.6041ZM64.701 66.0644V65.4226H66.3606V42.2934H64.701V41.6521H69.3457V65.4226H71.0198V66.0644H64.701V66.0644ZM56.4854 48.8753C55.4063 49.5938 55.4094 50.6267 55.4115 51.6736V62.8178C55.4094 63.8642 55.4431 64.9453 56.5222 65.6633C57.5069 66.1385 58.3017 66.2734 59.7585 66.2776C61.2168 66.2776 61.9908 66.11 62.9947 65.5798C64.0737 64.8613 64.0878 63.8206 64.0831 62.7897L64.0841 59.8456H61.154L61.1478 64.6885C61.1436 65.3868 60.5377 65.6732 59.7756 65.6737C58.972 65.6732 58.3764 65.3738 58.3764 64.6652L58.3712 56.792H64.0821L64.0831 51.7271C64.0883 50.6962 64.1116 49.5933 63.0315 48.8742C62.0458 48.399 61.2339 48.3103 59.7761 48.3103C58.3193 48.315 57.4711 48.4006 56.4854 48.8753V48.8753ZM61.1514 49.8615L61.1462 56.1414L58.3717 56.1373L58.3645 49.875C58.3582 49.0252 59.0088 48.8125 59.7699 48.8104C60.5335 48.8109 61.1644 49.0044 61.1514 49.8615ZM76.2005 42.2934H77.8186V48.7658C76.5631 47.8973 73.578 48.1759 72.5741 49.1803C71.8489 49.9891 71.8489 50.8581 71.8489 52.4762V61.9898C71.8489 63.6079 71.852 64.5318 72.5772 65.3406C73.6636 66.5852 77.0549 66.5598 77.8191 65.5061V66.0638H82.3668V65.4226H80.7773V41.6521H76.2015V42.2934H76.2005V42.2934ZM76.3131 48.9095C77.1945 48.9998 77.8186 49.4786 77.8186 50.636V63.6649C77.8186 64.8219 77.1934 65.4159 76.312 65.5067C75.8026 65.5591 75.2205 65.391 74.9341 64.894C74.8553 64.7575 74.7759 64.5744 74.8055 63.6649V50.5795C74.7894 49.8688 74.8661 49.5435 74.9808 49.3847C75.3139 48.923 75.8031 48.8571 76.3131 48.9095V48.9095Z" fill="white"/>
<path fill-rule="evenodd" clip-rule="evenodd" d="M76.5216 33.6057C76.6451 33.5777 76.8054 33.4298 76.7971 33.1243C76.7971 33.1243 76.8324 32.6221 76.9268 32.4587C76.9268 32.4587 77.0311 32.1546 77.0202 32.0846C77.0202 32.0846 77.2531 32.096 77.5571 33.0537C77.5571 33.0537 77.5218 32.7969 77.7325 32.6688L78.3042 32.262C78.3042 32.262 78.5039 32.1048 78.3638 32.6688C78.3638 32.6688 78.3161 32.9956 78.1408 33.2176C78.1408 33.2176 77.996 33.4137 78.077 33.6514C78.0993 33.7152 78.1376 33.7816 78.1994 33.848C78.1994 33.848 78.5791 34.4212 79.4185 34.3061C79.6992 34.2677 80.0406 34.1795 80.4541 34C80.4541 34 81.5897 33.4438 83.2732 33.5087C83.2732 33.5087 85.2005 33.5248 86.6349 34.5276C87.0998 34.8524 87.5973 35.437 88.0118 36.3361C88.0118 36.3361 88.6188 37.4344 89.2143 39.3964C89.6792 40.9295 90.336 42.061 91.2013 42.4267C91.2013 42.4267 91.8591 42.7821 92.5206 42.4184C92.6394 42.3536 92.7494 42.4272 92.7068 42.5263C92.7068 42.5263 92.2041 43.1727 91.1536 42.8184C90.1959 42.4957 89.3472 41.6496 88.5352 40.2841C88.4175 40.0859 87.4479 38.2608 87.4167 38.2136C87.3861 38.1674 86.7257 37.0894 86.4347 37.6201C86.3399 37.7882 86.293 37.979 86.2988 38.1718C86.3047 38.3646 86.3631 38.5522 86.4679 38.7142C86.4679 38.7142 87.3213 39.8395 87.7306 40.2135C87.7306 40.2135 88.4782 40.9492 88.8875 41.1126C88.8875 41.1126 89.1319 41.1245 89.2372 41.6267C89.2372 41.6267 89.4701 42.725 90.2888 43.636C90.2888 43.636 90.4288 43.7413 90.3821 43.9981C90.3821 43.9981 90.3821 44.1501 90.4755 44.1849C90.4755 44.1849 90.5342 44.3016 90.3355 44.4417C90.3355 44.4417 90.2301 44.6051 89.8442 44.2082C89.8442 44.2082 89.6455 44.1615 89.4125 43.9276C89.4125 43.9276 88.8631 42.9118 88.5363 42.6078C88.5363 42.6078 87.7197 41.6262 86.843 41.054C86.843 41.054 86.072 40.365 85.3239 40.0377C85.3239 40.0377 83.4776 39.4769 82.964 38.2504C82.964 38.2504 82.0187 38.1923 81.2364 37.6549C81.2364 37.6549 79.9737 36.8839 79.6245 38.169C79.6245 38.169 80.371 38.6011 79.5301 38.6831C79.5301 38.6831 79.0284 39.1033 78.9345 38.4611L78.7016 36.8959C78.7016 36.8959 78.1522 36.6619 78.036 36.4871C78.036 36.4871 77.6609 35.7514 77.5914 35.5994C77.5914 35.5994 77.5094 35.2254 77.0311 35.2254C77.0311 35.2254 76.3297 35.2134 76.05 35.2835C76.05 35.2835 75.6874 35.4355 75.6526 35.0848C75.6526 35.0848 75.3377 34.9099 75.6293 34.6179C75.6293 34.6179 75.8513 34.4311 75.9567 34.2791C75.9567 34.2791 76.0142 34.2324 76.1196 33.9637C76.1206 33.9652 76.2368 33.6695 76.5216 33.6057V33.6057ZM79.4315 37.2123C79.4315 37.2123 79.1794 37.5278 79.2266 38.0855C79.2266 38.0855 79.2795 38.1467 79.2977 38.059C79.2977 38.059 79.3817 37.3581 79.4668 37.2533C79.4673 37.2533 79.5015 37.189 79.4315 37.2123V37.2123ZM88.1498 40.8963C88.1648 40.8677 88.0943 40.8174 88.0943 40.8174C88.059 40.7863 87.9988 40.7432 87.92 40.681C87.3918 40.2639 86.1893 39.1277 86.1893 39.1277C86.1083 39.0634 86.1893 39.1863 86.1893 39.1863C86.3351 39.4431 88.0818 40.8916 88.0818 40.8916C88.0943 40.8994 88.1285 40.9393 88.1498 40.8963V40.8963ZM89.2149 42.8718C89.3202 43.1229 89.5178 43.2225 89.5178 43.2225C89.5656 43.2635 89.5593 43.2111 89.5593 43.2111C89.4073 42.8661 89.2553 42.8433 89.2553 42.8433C89.2024 42.808 89.2149 42.8718 89.2149 42.8718Z" fill="#EFC031"/>
</svg>
